<mxfile host="65bd71144e">
    <diagram id="0LTNSl8Pgtgi9z6sdWyp" name="Page-1">
        <mxGraphModel dx="1852" dy="607" grid="1" gridSize="10" guides="1" tooltips="1" connect="1" arrows="1" fold="1" page="1" pageScale="1" pageWidth="827" pageHeight="1169" math="0" shadow="0">
            <root>
                <mxCell id="0"/>
                <mxCell id="1" parent="0"/>
                <mxCell id="2" value="" style="shape=table;startSize=0;container=1;collapsible=0;childLayout=tableLayout;" parent="1" vertex="1">
                    <mxGeometry x="-70" y="150" width="900" height="40" as="geometry"/>
                </mxCell>
                <mxCell id="3" value="" style="shape=tableRow;horizontal=0;startSize=0;swimlaneHead=0;swimlaneBody=0;strokeColor=inherit;top=0;left=0;bottom=0;right=0;collapsible=0;dropTarget=0;fillColor=none;points=[[0,0.5],[1,0.5]];portConstraint=eastwest;" parent="2" vertex="1">
                    <mxGeometry width="900" height="40" as="geometry"/>
                </mxCell>
                <mxCell id="4" value="as" style="shape=partialRectangle;html=1;whiteSpace=wrap;connectable=0;strokeColor=inherit;overflow=hidden;fillColor=none;top=0;left=0;bottom=0;right=0;pointerEvents=1;" parent="3" vertex="1">
                    <mxGeometry width="60" height="40" as="geometry">
                        <mxRectangle width="60" height="40" as="alternateBounds"/>
                    </mxGeometry>
                </mxCell>
                <mxCell id="5" value="sa" style="shape=partialRectangle;html=1;whiteSpace=wrap;connectable=0;strokeColor=inherit;overflow=hidden;fillColor=none;top=0;left=0;bottom=0;right=0;pointerEvents=1;" parent="3" vertex="1">
                    <mxGeometry x="60" width="60" height="40" as="geometry">
                        <mxRectangle width="60" height="40" as="alternateBounds"/>
                    </mxGeometry>
                </mxCell>
                <mxCell id="6" value="ss" style="shape=partialRectangle;html=1;whiteSpace=wrap;connectable=0;strokeColor=inherit;overflow=hidden;fillColor=none;top=0;left=0;bottom=0;right=0;pointerEvents=1;" parent="3" vertex="1">
                    <mxGeometry x="120" width="60" height="40" as="geometry">
                        <mxRectangle width="60" height="40" as="alternateBounds"/>
                    </mxGeometry>
                </mxCell>
                <mxCell id="7" value="ss" style="shape=partialRectangle;html=1;whiteSpace=wrap;connectable=0;strokeColor=inherit;overflow=hidden;fillColor=none;top=0;left=0;bottom=0;right=0;pointerEvents=1;" parent="3" vertex="1">
                    <mxGeometry x="180" width="60" height="40" as="geometry">
                        <mxRectangle width="60" height="40" as="alternateBounds"/>
                    </mxGeometry>
                </mxCell>
                <mxCell id="8" value="dcsdcds" style="shape=partialRectangle;html=1;whiteSpace=wrap;connectable=0;strokeColor=inherit;overflow=hidden;fillColor=none;top=0;left=0;bottom=0;right=0;pointerEvents=1;" parent="3" vertex="1">
                    <mxGeometry x="240" width="60" height="40" as="geometry">
                        <mxRectangle width="60" height="40" as="alternateBounds"/>
                    </mxGeometry>
                </mxCell>
                <mxCell id="9" value="csdcsdsdc" style="shape=partialRectangle;html=1;whiteSpace=wrap;connectable=0;strokeColor=inherit;overflow=hidden;fillColor=none;top=0;left=0;bottom=0;right=0;pointerEvents=1;" parent="3" vertex="1">
                    <mxGeometry x="300" width="60" height="40" as="geometry">
                        <mxRectangle width="60" height="40" as="alternateBounds"/>
                    </mxGeometry>
                </mxCell>
                <mxCell id="10" value="sdcdscdsc" style="shape=partialRectangle;html=1;whiteSpace=wrap;connectable=0;strokeColor=inherit;overflow=hidden;fillColor=none;top=0;left=0;bottom=0;right=0;pointerEvents=1;" parent="3" vertex="1">
                    <mxGeometry x="360" width="60" height="40" as="geometry">
                        <mxRectangle width="60" height="40" as="alternateBounds"/>
                    </mxGeometry>
                </mxCell>
                <mxCell id="11" value="sdvcdszdc" style="shape=partialRectangle;html=1;whiteSpace=wrap;connectable=0;strokeColor=inherit;overflow=hidden;fillColor=none;top=0;left=0;bottom=0;right=0;pointerEvents=1;" parent="3" vertex="1">
                    <mxGeometry x="420" width="60" height="40" as="geometry">
                        <mxRectangle width="60" height="40" as="alternateBounds"/>
                    </mxGeometry>
                </mxCell>
                <mxCell id="12" value="dacsds" style="shape=partialRectangle;html=1;whiteSpace=wrap;connectable=0;strokeColor=inherit;overflow=hidden;fillColor=none;top=0;left=0;bottom=0;right=0;pointerEvents=1;" parent="3" vertex="1">
                    <mxGeometry x="480" width="60" height="40" as="geometry">
                        <mxRectangle width="60" height="40" as="alternateBounds"/>
                    </mxGeometry>
                </mxCell>
                <mxCell id="13" value="" style="shape=partialRectangle;html=1;whiteSpace=wrap;connectable=0;strokeColor=inherit;overflow=hidden;fillColor=none;top=0;left=0;bottom=0;right=0;pointerEvents=1;" parent="3" vertex="1">
                    <mxGeometry x="540" width="60" height="40" as="geometry">
                        <mxRectangle width="60" height="40" as="alternateBounds"/>
                    </mxGeometry>
                </mxCell>
                <mxCell id="14" value="" style="shape=partialRectangle;html=1;whiteSpace=wrap;connectable=0;strokeColor=inherit;overflow=hidden;fillColor=none;top=0;left=0;bottom=0;right=0;pointerEvents=1;" parent="3" vertex="1">
                    <mxGeometry x="600" width="60" height="40" as="geometry">
                        <mxRectangle width="60" height="40" as="alternateBounds"/>
                    </mxGeometry>
                </mxCell>
                <mxCell id="15" value="" style="shape=partialRectangle;html=1;whiteSpace=wrap;connectable=0;strokeColor=inherit;overflow=hidden;fillColor=none;top=0;left=0;bottom=0;right=0;pointerEvents=1;" parent="3" vertex="1">
                    <mxGeometry x="660" width="60" height="40" as="geometry">
                        <mxRectangle width="60" height="40" as="alternateBounds"/>
                    </mxGeometry>
                </mxCell>
                <mxCell id="16" value="" style="shape=partialRectangle;html=1;whiteSpace=wrap;connectable=0;strokeColor=inherit;overflow=hidden;fillColor=none;top=0;left=0;bottom=0;right=0;pointerEvents=1;" parent="3" vertex="1">
                    <mxGeometry x="720" width="60" height="40" as="geometry">
                        <mxRectangle width="60" height="40" as="alternateBounds"/>
                    </mxGeometry>
                </mxCell>
                <mxCell id="17" value="" style="shape=partialRectangle;html=1;whiteSpace=wrap;connectable=0;strokeColor=inherit;overflow=hidden;fillColor=none;top=0;left=0;bottom=0;right=0;pointerEvents=1;" parent="3" vertex="1">
                    <mxGeometry x="780" width="60" height="40" as="geometry">
                        <mxRectangle width="60" height="40" as="alternateBounds"/>
                    </mxGeometry>
                </mxCell>
                <mxCell id="18" value="" style="shape=partialRectangle;html=1;whiteSpace=wrap;connectable=0;strokeColor=inherit;overflow=hidden;fillColor=none;top=0;left=0;bottom=0;right=0;pointerEvents=1;" parent="3" vertex="1">
                    <mxGeometry x="840" width="60" height="40" as="geometry">
                        <mxRectangle width="60" height="40" as="alternateBounds"/>
                    </mxGeometry>
                </mxCell>
                <mxCell id="19" value="0" style="text;html=1;align=center;verticalAlign=middle;resizable=0;points=[];autosize=1;strokeColor=none;fillColor=none;" parent="1" vertex="1">
                    <mxGeometry x="-45" y="198" width="30" height="30" as="geometry"/>
                </mxCell>
                <mxCell id="20" value="1" style="text;html=1;align=center;verticalAlign=middle;resizable=0;points=[];autosize=1;strokeColor=none;fillColor=none;" parent="1" vertex="1">
                    <mxGeometry x="5" y="198" width="30" height="30" as="geometry"/>
                </mxCell>
                <mxCell id="22" value="2" style="text;html=1;align=center;verticalAlign=middle;resizable=0;points=[];autosize=1;strokeColor=none;fillColor=none;" parent="1" vertex="1">
                    <mxGeometry x="85" y="198" width="30" height="30" as="geometry"/>
                </mxCell>
                <mxCell id="23" value="" style="whiteSpace=wrap;html=1;" parent="1" vertex="1">
                    <mxGeometry x="250" y="50" width="120" height="60" as="geometry"/>
                </mxCell>
                <mxCell id="24" value="" style="ellipse;whiteSpace=wrap;html=1;" parent="1" vertex="1">
                    <mxGeometry x="270" y="290" width="210" height="170" as="geometry"/>
                </mxCell>
                <mxCell id="25" value="" style="shape=table;startSize=0;container=1;collapsible=0;childLayout=tableLayout;" vertex="1" parent="1">
                    <mxGeometry x="-560" y="228" width="360" height="40" as="geometry"/>
                </mxCell>
                <mxCell id="26" value="" style="shape=tableRow;horizontal=0;startSize=0;swimlaneHead=0;swimlaneBody=0;strokeColor=inherit;top=0;left=0;bottom=0;right=0;collapsible=0;dropTarget=0;fillColor=none;points=[[0,0.5],[1,0.5]];portConstraint=eastwest;" vertex="1" parent="25">
                    <mxGeometry width="360" height="40" as="geometry"/>
                </mxCell>
                <mxCell id="32" style="shape=partialRectangle;html=1;whiteSpace=wrap;connectable=0;strokeColor=inherit;overflow=hidden;fillColor=none;top=0;left=0;bottom=0;right=0;pointerEvents=1;" vertex="1" parent="26">
                    <mxGeometry width="60" height="40" as="geometry">
                        <mxRectangle width="60" height="40" as="alternateBounds"/>
                    </mxGeometry>
                </mxCell>
                <mxCell id="27" value="" style="shape=partialRectangle;html=1;whiteSpace=wrap;connectable=0;strokeColor=inherit;overflow=hidden;fillColor=none;top=0;left=0;bottom=0;right=0;pointerEvents=1;" vertex="1" parent="26">
                    <mxGeometry x="60" width="60" height="40" as="geometry">
                        <mxRectangle width="60" height="40" as="alternateBounds"/>
                    </mxGeometry>
                </mxCell>
                <mxCell id="28" value="" style="shape=partialRectangle;html=1;whiteSpace=wrap;connectable=0;strokeColor=inherit;overflow=hidden;fillColor=none;top=0;left=0;bottom=0;right=0;pointerEvents=1;" vertex="1" parent="26">
                    <mxGeometry x="120" width="60" height="40" as="geometry">
                        <mxRectangle width="60" height="40" as="alternateBounds"/>
                    </mxGeometry>
                </mxCell>
                <mxCell id="29" value="" style="shape=partialRectangle;html=1;whiteSpace=wrap;connectable=0;strokeColor=inherit;overflow=hidden;fillColor=none;top=0;left=0;bottom=0;right=0;pointerEvents=1;" vertex="1" parent="26">
                    <mxGeometry x="180" width="60" height="40" as="geometry">
                        <mxRectangle width="60" height="40" as="alternateBounds"/>
                    </mxGeometry>
                </mxCell>
                <mxCell id="30" value="" style="shape=partialRectangle;html=1;whiteSpace=wrap;connectable=0;strokeColor=inherit;overflow=hidden;fillColor=none;top=0;left=0;bottom=0;right=0;pointerEvents=1;" vertex="1" parent="26">
                    <mxGeometry x="240" width="60" height="40" as="geometry">
                        <mxRectangle width="60" height="40" as="alternateBounds"/>
                    </mxGeometry>
                </mxCell>
                <mxCell id="31" value="" style="shape=partialRectangle;html=1;whiteSpace=wrap;connectable=0;strokeColor=inherit;overflow=hidden;fillColor=none;top=0;left=0;bottom=0;right=0;pointerEvents=1;" vertex="1" parent="26">
                    <mxGeometry x="300" width="60" height="40" as="geometry">
                        <mxRectangle width="60" height="40" as="alternateBounds"/>
                    </mxGeometry>
                </mxCell>
                <mxCell id="33" value="" style="shape=table;startSize=0;container=1;collapsible=0;childLayout=tableLayout;" vertex="1" parent="1">
                    <mxGeometry x="-640" y="370" width="60" height="280" as="geometry"/>
                </mxCell>
                <mxCell id="34" value="" style="shape=tableRow;horizontal=0;startSize=0;swimlaneHead=0;swimlaneBody=0;strokeColor=inherit;top=0;left=0;bottom=0;right=0;collapsible=0;dropTarget=0;fillColor=none;points=[[0,0.5],[1,0.5]];portConstraint=eastwest;" vertex="1" parent="33">
                    <mxGeometry width="60" height="40" as="geometry"/>
                </mxCell>
                <mxCell id="35" value="" style="shape=partialRectangle;html=1;whiteSpace=wrap;connectable=0;strokeColor=inherit;overflow=hidden;fillColor=none;top=0;left=0;bottom=0;right=0;pointerEvents=1;" vertex="1" parent="34">
                    <mxGeometry width="60" height="40" as="geometry">
                        <mxRectangle width="60" height="40" as="alternateBounds"/>
                    </mxGeometry>
                </mxCell>
                <mxCell id="36" value="" style="shape=tableRow;horizontal=0;startSize=0;swimlaneHead=0;swimlaneBody=0;strokeColor=inherit;top=0;left=0;bottom=0;right=0;collapsible=0;dropTarget=0;fillColor=none;points=[[0,0.5],[1,0.5]];portConstraint=eastwest;" vertex="1" parent="33">
                    <mxGeometry y="40" width="60" height="40" as="geometry"/>
                </mxCell>
                <mxCell id="37" value="" style="shape=partialRectangle;html=1;whiteSpace=wrap;connectable=0;strokeColor=inherit;overflow=hidden;fillColor=none;top=0;left=0;bottom=0;right=0;pointerEvents=1;" vertex="1" parent="36">
                    <mxGeometry width="60" height="40" as="geometry">
                        <mxRectangle width="60" height="40" as="alternateBounds"/>
                    </mxGeometry>
                </mxCell>
                <mxCell id="38" value="" style="shape=tableRow;horizontal=0;startSize=0;swimlaneHead=0;swimlaneBody=0;strokeColor=inherit;top=0;left=0;bottom=0;right=0;collapsible=0;dropTarget=0;fillColor=none;points=[[0,0.5],[1,0.5]];portConstraint=eastwest;" vertex="1" parent="33">
                    <mxGeometry y="80" width="60" height="40" as="geometry"/>
                </mxCell>
                <mxCell id="39" value="" style="shape=partialRectangle;html=1;whiteSpace=wrap;connectable=0;strokeColor=inherit;overflow=hidden;fillColor=none;top=0;left=0;bottom=0;right=0;pointerEvents=1;" vertex="1" parent="38">
                    <mxGeometry width="60" height="40" as="geometry">
                        <mxRectangle width="60" height="40" as="alternateBounds"/>
                    </mxGeometry>
                </mxCell>
                <mxCell id="40" value="" style="shape=tableRow;horizontal=0;startSize=0;swimlaneHead=0;swimlaneBody=0;strokeColor=inherit;top=0;left=0;bottom=0;right=0;collapsible=0;dropTarget=0;fillColor=none;points=[[0,0.5],[1,0.5]];portConstraint=eastwest;" vertex="1" parent="33">
                    <mxGeometry y="120" width="60" height="40" as="geometry"/>
                </mxCell>
                <mxCell id="41" value="" style="shape=partialRectangle;html=1;whiteSpace=wrap;connectable=0;strokeColor=inherit;overflow=hidden;fillColor=none;top=0;left=0;bottom=0;right=0;pointerEvents=1;" vertex="1" parent="40">
                    <mxGeometry width="60" height="40" as="geometry">
                        <mxRectangle width="60" height="40" as="alternateBounds"/>
                    </mxGeometry>
                </mxCell>
                <mxCell id="42" value="" style="shape=tableRow;horizontal=0;startSize=0;swimlaneHead=0;swimlaneBody=0;strokeColor=inherit;top=0;left=0;bottom=0;right=0;collapsible=0;dropTarget=0;fillColor=none;points=[[0,0.5],[1,0.5]];portConstraint=eastwest;" vertex="1" parent="33">
                    <mxGeometry y="160" width="60" height="40" as="geometry"/>
                </mxCell>
                <mxCell id="43" value="" style="shape=partialRectangle;html=1;whiteSpace=wrap;connectable=0;strokeColor=inherit;overflow=hidden;fillColor=none;top=0;left=0;bottom=0;right=0;pointerEvents=1;" vertex="1" parent="42">
                    <mxGeometry width="60" height="40" as="geometry">
                        <mxRectangle width="60" height="40" as="alternateBounds"/>
                    </mxGeometry>
                </mxCell>
                <mxCell id="44" value="" style="shape=tableRow;horizontal=0;startSize=0;swimlaneHead=0;swimlaneBody=0;strokeColor=inherit;top=0;left=0;bottom=0;right=0;collapsible=0;dropTarget=0;fillColor=none;points=[[0,0.5],[1,0.5]];portConstraint=eastwest;" vertex="1" parent="33">
                    <mxGeometry y="200" width="60" height="40" as="geometry"/>
                </mxCell>
                <mxCell id="45" value="" style="shape=partialRectangle;html=1;whiteSpace=wrap;connectable=0;strokeColor=inherit;overflow=hidden;fillColor=none;top=0;left=0;bottom=0;right=0;pointerEvents=1;" vertex="1" parent="44">
                    <mxGeometry width="60" height="40" as="geometry">
                        <mxRectangle width="60" height="40" as="alternateBounds"/>
                    </mxGeometry>
                </mxCell>
                <mxCell id="46" value="" style="shape=tableRow;horizontal=0;startSize=0;swimlaneHead=0;swimlaneBody=0;strokeColor=inherit;top=0;left=0;bottom=0;right=0;collapsible=0;dropTarget=0;fillColor=none;points=[[0,0.5],[1,0.5]];portConstraint=eastwest;" vertex="1" parent="33">
                    <mxGeometry y="240" width="60" height="40" as="geometry"/>
                </mxCell>
                <mxCell id="47" value="" style="shape=partialRectangle;html=1;whiteSpace=wrap;connectable=0;strokeColor=inherit;overflow=hidden;fillColor=none;top=0;left=0;bottom=0;right=0;pointerEvents=1;" vertex="1" parent="46">
                    <mxGeometry width="60" height="40" as="geometry">
                        <mxRectangle width="60" height="40" as="alternateBounds"/>
                    </mxGeometry>
                </mxCell>
                <mxCell id="48" value="" style="shape=stencil(lVjLbhsxDPwaXwlRoijpnKb/ESBObdSNAyd9/X25NdZZUd4xfFt7OSuJ5AxJbdLD++7pbbuJ4f3jdPy+/b1//tht0pdNjPvX3fa0/7CnTXrcpIeX42n77XT8+fp8/v32NFlOTz+Ov6Yv/DnjRKiUCRXD3/M/SqX+/+Pr2f6wf13Yp0I1OPskwD5QqJ19ptrW7WMkFWcv4Puc/f4zhbhu36jFzlyolnVz+3q74+tKMXXmzCR53b5S7p3JjTiA0zJF7gCxUAPu5ETcuydlimBHLJT7E0sgAQnBSkF7QKGiAFAoOZ8KaQKAStJ7KVsUQdDMiW4FVWKwQgzerSVRAF4yQM09oM1+uw4YAlczjLQBpE/U2iARDKD9oRvOVXOr9iu0SA1EOiZKDhCIwQqJKfepUS1ZwBkkkjgvMczWbPx0cahwBW2e0EXnTV5nKHuKGgB5qdmO1W8pgkg3EwGXfA1KamsUkgdkDJDqAQ241QDVxSFQBgQyQOtXmAKHZPgaoOEz+C1FqBrjoWvCcWgzXRYAZRy44AEVrWBarR6ApNIAkj1AgMwYIIgHwHKo8wYWbhV0BiV1W7oIz+oKQy4h9TZAEw9IKA5lfr1Ib9TDGMCLQINl2iKdBsYllHyVqt61woXyyzMgt9rrOHjpBuMGtyIh42Ctm8tvpoIZVB3lLoK+BtCBQQGTmpsHZCyuOqgApFwlHhgESX03IAwqECHAvC5piAOIXLmU5SVHwQpZfQmyM6ASJGmItMJ0TckrmTUbATUbNia4ZkOhl6zpa31qLBJ4rXN1umEdE+NW1weiQe2bAC6/M+w2DMDOr9Z9I0Ce68FFN4T4Rn/fp6sW2LnaBOHqqDIsixx9qC29bgw1Lvukzum1okxe+6xxZFRS/ExjUyzKjOJr3DTFIjqQ9kOWNeNIi9lLsTkZ9TKDEBs7QVIYdfo0xTwYWjGbhtB0lakFZ486BpvoXYsR5hF/7cbAabwNW8i+zBcKn/aok5TLxL+wB/uX7KdJhu6U7PfD0J+ifqziuWat2WvvzwhbbbN38Ypzc3Ld3rjR09FKLFAUKT47ZZ6A1vbjeiPB8dJZbj7vYJCGmn3s2auw0kzx8jdaguJl+eDtC9DDe2/Ybtvbw+d13sv+cDjfBi7f++s/++t8dZge/wE=);lineShape=1;strokeColor=default;" vertex="1" parent="1">
                    <mxGeometry x="-290.8408236439036" y="374.6869304210767" width="80.73376272097084" height="60.49202398085038" as="geometry"/>
                </mxCell>
                <mxCell id="49" value="" style="shape=stencil(lVjZctswDPwav2JIAuDxnKb/kZk4jadpnHHc6+8L1aUiQtameVOcXZFY3Nrxzevj3ct+l8Lr+XT8uv95uD8/7vjTLqXD8+P+dDjb045vd3zzcDztv5yO35/vL3+/3E3I6enb8cf0hl8XXqQSJ1IKv//9wCTh7y+fL/inw/MCX0nKiI9U6zY+FhIZCI1a3sZzoFgHfCEu23gRCmnAC1Vwf80kbcAnKrKNz5mqjgZTStv4wsQ84AMpuE8pFJrDB6S/OSw7fAb6VOnmvemZEF5JxvvHRAE4rGYKLoLMYyAijOBCyFzAQFIjFEdQKuiESnm8EjNF3SY003AUVSI1RLAkGQmaqEVAyJRGN2elhAiV4hjXRUgbIDTiMBBq6Ll9PTPDHGkzw45geISOsVQbFSSTWT0mc8OuNkfomG2mNHQ192ieCYrzU7wNdklkgxWAMnrOXBOArjn6imS6RSCrmomjHxauuc6wYBN/RENHJErqCRkRIuX2ISOir3ttbhVbhDRa3QqsxNMJ0ROQIyYbxiQ1VzNw9aSSu5JSxbLW6gmKrsSUxRMEhKtKr6XLE5CsSoE9AZUyIyh7laANpknyfoigMk2E4gkwWpWyM9oqOrYhOU832OVM1lw8oSA/cBdxmXHoBO6aLAmgklksyfpKyGgbvFZGM84HWaVoQWUm9ha1dBzytBHEExK2QV0sWfCBacNUCqsUhVdKVzIuI6P5SsYJLt8fI+SwklWgDdaCfE4zHKJtCPWVL/WB5XobTX0+mgkBqlSb77vT0IXGE13NDton3y2Ca1k2+groDyain5iUGJ1gRo+xZEJHNGw0P+paHQmIoH52EIalchpnxiux9Fl2ax3QkWAbGir3RoijDdMChEIjrDbEAoPPCGHMh4hPKK33m9nTvYxsrUwy4qXbtJUNJXk8KN259A34DY/ur8UHXu6z0NbKWlxkw+Tk6Gue7dwRNKtYicf0t6W+ojndOyAqdHHyE4CFRAEWJ78GGB4t6bG/7T/fv+pThlcQQcHv0IZHERd6HZnxmSrER/F4BnquFjHTH79/jWegZ+ij+4wXuFUF39EMj9/vAtrirUH/uipneLTbRp/A73ykev+jlj28fRF7ODw9XT6oLf/vv6DZT5evb3z7Bw==);lineShape=1;strokeColor=default;" vertex="1" parent="1">
                    <mxGeometry x="-14.607179033147759" y="341.49705152801414" width="71.28270771962025" height="72.90847446031137" as="geometry"/>
                </mxCell>
                <mxCell id="50" value="" style="shape=stencil(rZbdbtswDIWfxreEREqUdN1171Gg6RIsS4o03da3LzNDacTaZxiwO8fhZ4o/h9Qkdy/bh+fNxOHlfDp+3/zaPZ63k3yZmHeH7ea0O9vTJPeT3D0dT5tvp+Pr4XH+/fxwsbw8/Tj+vHzh98ylQBovFIe3+Y1SS39efJ3t97vDrb1S4sE+VgoAyEyiA8CFalwHtFBOA2A+BQAlUysDkDMVXQeq9gN0oAQKeR1olbIMgH2CgYcY7INhJBrlAFw0DzSmUgCQScdC2JsiAAjEY14trAA8VKHkjtR6adYKUV1vfORhuda1V/bGhTQARFIXRKFSQfsp5ejTJCBN2aJWXwjUftbgLmordWAAJFLXTdfELQO1F/YKCNScmodRETVQA/1aItUxraVBkdrfqXqgAOCiueCPpKi/LUQXNFMGlbZGcJW2tDJSdeudcwVq7/g1QJ0gIhUE2CxtI5B6GpYBJnaiLiRIo6Z556FRRJU2xVUPNODBRmPJHkCVVqHiYqh9Z6y1d3AS1Z6GNQH5LElfMv8HSKnX9aa9FQHBx6Ctz5FFwJYgjx5sjjQw+WzNyliHxFBAMfpNLQxbw4aQW9TXqbBoH/ygjAGq4fNKpAzOH/zQU5xQvw4TJZDO7C8ZDK8MtpVG8wjXVBQvS0sWGEVWXHd6vDdZ+ii8sUfJ+dQ8oe+gRXthv0Ai7DUxwY7xCkX0/UptPH+iBhT/z7fUv9rbw8eV+Gm338836tv//RXaXs3Xb7l/Bw==);lineShape=1;strokeColor=default;" vertex="1" parent="1">
                    <mxGeometry x="-232.6835916432542" y="378.99176369687723" width="10.683364316307461" height="24.7779067824531" as="geometry"/>
                </mxCell>
                <mxCell id="51" value="" style="shape=stencil(lVjZctswDPwav2JIgODxnLb/kZk4jadpnHHS6+8L1UMlBKXt5E2WuSSOxQLUQW5eHm6fjwcOL6+X87fjr9Pd68NBPh2YT08Px8vp1Z4O8vkgN/fny/Hr5fzj6e76+/l2Wbk8fT//XHb4fcVxopIXFIc/1zeZUvr34st1/ePp6d36mCmM6wtlBeuVpA3rY6Ia4AGJBwALhQgAlXg8QZhy2wdwoKADIAXKwGfmHpIVkCnyPkBS328FFCogSkmoTico8EGZahkBSgx8yIlkzJudiXwo0vdbAZEaAFQhDR6Q8z6gJVLnQ6KGAI3imGnFJsVgqR5t0kapwiPKeERWSKZWep7WegjEBYSp+kSUTBnFNVAcE2FvKjApVypjXGsmBnHV4k9oEZ5gecqj083OBDWa2EfJAq1ABawincwYoAF+SyGpEwA4bTVaZTIJUGNRleydrkgFYi+wFVB6ZrYBgWQUpmYqgJwOXpiawkybST5KqYvhNsC01wGkZ2YboJMP3M/cS1zLHhAAYBFr8YCI2Dr7wJitOpFPulRtA7Kv6ZagahiguigpZKsB0ljTxiUW6ANPbBXkg0yJa1DILA8teUBFbLVGPebhnT7vkSlPNqE+anQV9oAIUm0FoerDFHHJafQ1CnXGitoBzCtUEBbXqUbRSCbTeGJ0FWTSRwFGJt+Cch8btzuKer23nqWArtZl48jvsurz9niyDlRroy6UAMAMSK6zmy6AsBpARp3R3Nm1bZI1nDHTaq0bZDpbgQUPQH1XpyanDMdEGzt1VAEVaqjiip/6LJUBOG3XhcIegMYZm+/ddKKJGACmqJpTDEq6+pHPxlABxFA/epuIoHJjr0l2P0FabxI30mi5AOH1o/0FZixyn1rW/aGm2t9ptN9IitZblTS3Hu6fPCFC32CPQK5RBdinlvum3x9NYcYHZ48FANnfvE4wjo81verWV2R/69lf+QYv0Nyma1W/IO/66yoY3vPe7u9v69FwZPmS0R67C4NW8NEPDP9fbw9vXzPuT4+P148h7//3Xz/s1fXLiXz+Cw==);lineShape=1;strokeColor=default;" vertex="1" parent="1">
                    <mxGeometry x="-184.28917688865636" y="362.6491197315238" width="27.260266947209175" height="56.902088908676205" as="geometry"/>
                </mxCell>
                <mxCell id="52" value="" style="shape=stencil(lVjLbhsxDPwaXwlJ1IvnNP2PAHEao2kcJOnr7ztbY7cWZU+R23qtWYnkkENqpzdvj3cv+10Kb++vx6/7n4f798edftqldHh+3L8e3vG009ud3jwcX/dfXo/fn+9Pv1/ulpXL07fjj+ULv064Lq0uoBR+n17EImZ/33w+rX86PJ+tN+nj+hTWL1xcH1VqHAFFSr8OSCqxDwANooEAulgaAUlCvg7QJt38DkYAWcXGI6UmIREAdsijV02aEoB5o2OWTLxUgtQwALpoI+tx4DFuQQJxas2SRgualELWV++i2ESJxS1In8NMLG6gTRsACEuI1wEdLhoBJUsnNvQsbQTAC4xIvUsamQerMjmSRbFxh9bWOF4G5JU2W5iTdBJnq6uJG8AoMQw2jPlpiXLbTNJ4JEMc2A7mkwFWKSkxMWzc3BBFOj+TC7W1NTTXrHYlAG8y4Qa+15wRRumKQGjxAOOhdpV1ATC/quTkAayyIrBxMprVbtA1mXdrZfxGUjtu1LWOXAVM3OjMS1HUGQ03sB3SRNdE5WT53liYsGfhgXP6A0Bk5KtrkTgDJOZWkM88oDG2QhInoytTdVv/PnOrkfJ9OUeVBcIucKPxujHTlRaaLnHKoMj8WqcjQaZZBsFE1y0FrqNwo5O5ZQuWc8nLHADU6o8CoFph4msg5Oh17Y42TSk0SSGkrhmAFrMkhai5QtOUZkSz9cSbVFcpJOda9v0SOqJMCF67D1xGA0KOVNUXfLShjN8FijPasPRkJA5lKjSdZlwN/kQxrNXz8gYbcTZApWSFDx33UhJjgCLZAbgNaIz7aLMikgyAHcYURbtfWOsdJLm4GY2b6sq0jRlxLTyXBxRo4Mg97MlswLDglF07bRMjlH0sZFp4u+41TqNUNpR5mcY4wPIz+D4XX2DpCeJP00MlMZjEB0RlHg3TeFWkElJM0xXGMeaf6KcljL2dUWJKNKX9qq5zyLY+UaHKkz8TbQ2LxOLXV3KeKrH59cbqtS/XsJdV3+Z7Yfg/stHNJwziy4aYj956/H89Hv5dsTwcnp5ONzTn//srGbw6Xefo7R8=);lineShape=1;strokeColor=default;" vertex="1" parent="1">
                    <mxGeometry x="-125.11168996021479" y="359.4602716366659" width="48.02470911073715" height="49.81510884548777" as="geometry"/>
                </mxCell>
                <mxCell id="53" value="" style="shape=stencil(lVfLctswDPwaXzEEQYDkOU3/IzNxak/dOOOkr78vVI8cE5I37U1RuBaAxS7Ajdy97h5etpucXt9Ox6/bn/vHt91GPm1y3j/vtqf9mz9t5H4jd0/H0/bL6fj9+fH898vDdHJ6+nb8Mf3CrzOuNDKZUDn9Pr9RsvT3xefz+cP++fp8IrXhPAtZuQ0QpdwHQE6UMgAwdR4BStJuA3In0wEgGebggFZHQCPtMCRJA6AIdQOAQmUMSTNVEJJ0kjwArBAz4EGpjDnUQh3koJ7DGFIrlEFIalRHplunDgDWSCx+gQFxZqRjSLVRA0mbd04ACCXwhcLUxpBMqSEeWqyS81BASGIxaXOmUXsbcWA6zQ2/DqixvbUTg+ZzidZRceo/UWEv5bG9nXukB01UJAKSAIBSXwIUMM3EC4AhwEIPnnQFVfJuVY5lzaBK1mMOHiQyMgfoGJK3RgNVskqlxeZTpAehFgA6v1nnoceyugaRHlSoBj1UYtRLjXKLX0BW6U4qHAHINSartFiljhXXygiQ2c9vAdKoB2ca8eCAvpBoBUx7DjpWSdvMzK0q2egargdkxitz3aBr6GXeXAAuWtxLUXHuhcA1pokWqlRJwOrw34CmC29VCOjuGqNV1jxTuQrglGJvNJ43ovVPtBiTj1G0CnSOq8AUJYjJZ2DwmasobzWHhk+496ElrsSNyaNsaGPyCRGyVqiILHHrqwbryhdmr7hGQ6tSDoK4tNf6B6IZl0IVON+iMXyXKCBjjvLxLRNNaYv69JKhzYRTJJl9IiKAyzf0EcMK5YUpCRyI+eLTlxQogYw95dB1TBnFs5gMiQzZdp6b/v08o6bWuBximU23ihTPo1HIkbE0M7J+3hf4eB5tksXirYThTuU2kUYJZFLgEqXP9L/3wwfnw95ZZif715mG76ofnveH94vx0/5wON+rr/8fL9L+6nwJl/s/);lineShape=1;strokeColor=default;" vertex="1" parent="1">
                    <mxGeometry x="-56.134853522204594" y="365.80033510762166" width="15.625193291027927" height="47.409438261297396" as="geometry"/>
                </mxCell>
                <mxCell id="54" value="" style="shape=stencil(lVfLbhsxDPyavRKSKOpxTtP/CBCnNurageO2yd+Xi826Jr07Rm5riWNxyCEpDfzwtn163QwpvJ1Px5+bv7vn83bgb0NKu8N2c9qd9Wvgx4EfXo6nzY/T8ffhefr9+jRajl+/jn/Gf3ifcJWkjqAUPqYFpjAtfJ/M97vDlXlKFMTYB+K4bp+ZCjv7ENbtpVPIxj4G6sChIpSDAaRMVQCgUbMncKGQ1gE1USsGkDMVwLlFYuuSFMrApVaoRQNQVhWc0NMcxBlQBaahd5/mrmHt64AYgj+iM6UGj4jJAoSEAaD6VOuKAG2oA90mojdIQjkmG1d18jP5a4mIzQM+z1wGJErdAxicUNVj8RwCAhQSF9Yys1oGCCVbcT1TAHkYAS4PkSoqCHXJAlqfV1ZJ27C2CvWtYWXLQTOTgUu6nWyUmsw1tSoN8YAOOIzi696lhtRa50Z6AbRZLKsF5PKgToLWt1SjieROG3AVlO+RaE6uyhqREM9a9S2gglRrclOjBchVpeMK4ioOywj2eh2PQALvXq8jCSTwetNoNEwgdVpzvqp1aoHu+mXAOObciOhUQSKKDn7LoQY4SOVC8TK1EkV0F6iU3SDtc69aBuQ5TReA9luQad0WS5qZGGSaNUq20aQIKyjd3k8SbPgxk1gtRYE3rBj9lFMAA0D3Iyjiu0Chaimri6ikM+Xo7SOIaaLs/MFXykjB8Y1Q2TdDXW+IDFR00yQbnAyBsg1PhdGMlG16dYwAcw2FDY5KHMReKNrY8Jy85S7xtcv8XXP9+P9ueNnt99Oz43rfvzN0aXqj8OM/);lineShape=1;strokeColor=default;" vertex="1" parent="1">
                    <mxGeometry x="-21.857081097668924" y="372.1828059284487" width="19.872519369416068" height="34.84179598850994" as="geometry"/>
                </mxCell>
                <mxCell id="55" value="" style="shape=stencil(rVZdb9swDPw1fiVEUV987rr/UaDpYixLijTd1n9feYbsiIlvGLA3xbmjqOOR0iAPb/un193g3dvlfPq++zU+X/aDfBm8H4/73Xm81NUgj4M8vJzOu2/n0/vxef79+jQhp9WP088pwu+ZJ+R1Inn3MX8ojqL78+XrjD+Mxyt8JSTfERJT0W1CSBSlIwQmATskpdITWEnTNkEdZdcTSATgvc3IkUf40BRZ8S4AfKLABp+BQlrIxQ7vSRBeyadeUUoF4rXPJ7cEN/Gh19ORYIKYigm5DE/M/Yk5UgCe0BsTcW6ibdUs3RAKMpGnlCwhI1c4Kn0jcKIEyla02X4hhOb0+4Ri68zVGEDWkm1KShEYtW7gemOkJsIW3sQPLcCWRGwOAEeFMqltNDSLVKgEg3cIH1sfrviAGjlTNDaljG2tvT41QWRSbeFW/QOIz24531pgwRskYzlPjEeRJQRo6ioR9xaqXRD/JyGn5uFF1AhdEYVC3/qxzjugkjC5vmy5wD5gJu7rVnWDN45VtRYmgA2y7YOryt+/M+08nWY4SCg0n13hPegET2ri1xRB0bhdSAs+wSvWtVG74OtkAVfazWCpowNV7KZv6jBmMLmcnbyluhDmo33+JZAH8bk9aBa8bxW8b9F/fKX9HV8X65PwZTwc5hfl9f/2CVk/zc9PefwE);lineShape=1;strokeColor=default;" vertex="1" parent="1">
                    <mxGeometry x="-15.418148291700618" y="381.91517397326504" width="22.06055453782028" height="15.017671424936339" as="geometry"/>
                </mxCell>
                <mxCell id="56" value="" style="shape=stencil(lVbLctswDPwaXTEgwQd4TtP/yEyc2lM3zjhOH39faFTJImxtJzdZxpLA7gLCIA/v+6e33RD5/XI+fd/9Ojxf9oN8GWI8vO5358PFngZ5HOTh5XTefTufPl6fp99vT2Pk+PTj9HM84feEEybJIyryn+lNojK9+DrFHw+vq/jEpLWLD0qtbANyoNwDYiON24BiGXEHEKUAbqhCMfQlNKphG6BMnDpAVioIoJT6lGqglLYBrXmANhJQtAFaz1KLxBUAlLL2gEQVCNcyibuhEjcAYCqtBygpuEEzcewBprQA4cw52QMaoNWUDuIByBplcc6q6H+83Qckyg5gvKEb4my1lXAVFG0AvbFGwylpT6tWEgRQ33GmTAT2NlpL3w8qVBkAGuXgAQwAloBPyaRE5gsUHCBRxPauvTW0EAPhzMy1b6Cxy8ENgXmucZHaskQ5tTnlBSCkQLlWqLgOKnPX3gfE2QmrHhXQQUZKc4BGBSnHfjCteLhvjnxD02KX+361DG6KCMjg+Wb2FShEMbMFL0QBNH0akMXPPqMhAoMnM1t/g1WFei6JHzQ5UwGDRmzQ9PN7PAIAognX21WsBlB0EEru0y6UQdE8u39hdfb7RrgzUp2/F1vh/QQoFEG5PK8t18Ung3lhU72fkTIvEfcNQdG1DVVw+o0bmCogMgSfPFME5gnmrejiUQ8H21/Unw+UGsnw+Stgx6QJ0dGDNoW47GdX9gPI57Nb7f/j7eG6Qr8cjsdpA1//71duezWt6/L4Fw==);lineShape=1;strokeColor=default;" vertex="1" parent="1">
                    <mxGeometry x="-619.2600934489915" y="619.8928615509633" width="13.473493752781224" height="29.663158108218568" as="geometry"/>
                </mxCell>
                <mxCell id="57" value="" style="shape=stencil(lVjbchoxDP0aXjW2JN+e0/Q/MhNSmNKQIaSXv6+2O0uwzJ4mb8vig62jcySZjdy97h5ethsOr+fT8fv21/7xvNvIlw3z/nm3Pe3P9rSR+43cPR1P22+n49vz4/z55WFaOT39OP6cfuH3jJNMTSYUhz/zmyik7d+brzPgsH++AnCloB6QZR0QK0UHUJIAATV1AE6kZR0gkTT0gEYprwM0U+4BEqgBQCpUSg+IFEEMuZA4AFOu64BSqPUsSaIEdqiFcs+SXHi7CWiZSusAWkgV5CEECj1NqVIBZ2qNJHaA3KhFAFCq3AGMhwjOVDNJL9cqS/Jv8yoUHMBiAHJNgzYaUwWGENNav4MxHYBcWYYdKilyUCDJPcBoBaku3kANp8HsVf16ZhAypT7NrUD7sK8AxhCD80dKvSpMJwwYjYsqr1LGgFCzYm/OZgyD81i96s9vGqqAn+z5MbNW5GVqxa8XILloBS97QEaEChX2ESQESEMIJiFQv6LZxuU4wphj8cWlCSTVdkhO1Ykqsk3ytcJkmtEOcsMHAcVgTWAAoBjq0gMurfC9xq4oidVvkMAGStE5s8Iaz4PTMmwicciyLn1rzckuZ0wNxMuLz6+ciX5/1HWDlSJRGZyMavUwu5jRFFS6z65nKzwugAR9JrpU2qsGiBSUAkXXYnEDzEN1tx5aQQ4Ke59Z1y+gfNkBQm+DHCgDlmyH2MsimVAAS6l5HallBhxJmxfqNBwBI0hZhoILIC+pvO2E5r2vuswBa12fHYDhGDxMazbUosHchNEryQbvjDha5tFLEpZisFavtReeHRAwOl4scGkcby4WEAh3Go+bWy9gvQZfKwIsXZYdN/JbAwRDl4oXhBkZlXb1Y6NChWoaXEYBnWdYj7vleJ62dMMPxmsKz+hAI6H/YXTIWGRY6kZJ2AiArqafvi1/AGAP75fzp/3hMN/tr7/3l3l7Nf8RIPd/AQ==);lineShape=1;strokeColor=default;" vertex="1" parent="1">
                    <mxGeometry x="-622.1152232032284" y="578.0852035271537" width="26.96942733707283" height="33.145631838696545" as="geometry"/>
                </mxCell>
                <mxCell id="58" value="" style="shape=stencil(7VjLbhsxDPwaXwmJ1POcpv8RIE5jNI0DJ339fbk1tGty1xP00lNufmhWIjkczmonN6+Pdy/7HYfXt9Px6/7n4f7tcSefdsyH58f96fCmn3Zyu5Obh+Np/+V0/P58f/7+cjetnD59O/6YnvDrjIuBWp5QHH6ff8kk/PeHz+f1T4fny/VClc362KhUAKjE3QBEKOXrAI4UigGkRgx24EQpGUAJVAsAVArVAGqgkK4DhEmiBRQKIIYUSJoFCGWQ1lSo2B1KoSTXAVmzZHfImTgAAFO3hU5aB3CknKjbI7EeKQJAoSqWGhkWLleKtg5RDwkKlxuFYAFKXwToFG2WOoV+fb0Sp1gqVaqgzoU9uQt1kNOSBs+W9QU9P1NdPR/EW+ogzXL+hs7TqPn8RJCfpU8uCtAbBDQHEIqApjUSW5oqiRBNJ4DbQWMGNK3VKx4zNdBqTSXPsk4qFRB06yS2atpLBcTQhbotmxYSpbVr51gV1qgqKFzv1OyReqAMmKcAJxd6yIhi6JRslnqmjGJoJA6A09rLUPUZMLf3NkAVLHlAR0GLp/eSt23Aiq0KCIB8So1afdBIVFujmnxaGcTQ5mE5AxhqmAKS5ZJSA4mAxuBku1XYQPo8p0otj9myDWA/3Jo2ENpBPFsVEMFE1yQ28YCEOy4nH0NBMTTfcZolJGTKHFfpiSzIioXgx6EmDg1c3aI4uiYsG827Pc0Dckr6t3NK0yPAxJpEYtXUFRVCht1cRtCch2tN2thvISjqQMw+iHe6OjhAwQDVPhe1hgVi2AagHYp3MjrGCurqVQvVBB1o7V6/SxwM3gbwGIKzA50Pue1OZJjseVJX+Oqw7UABmT4c6IcD/f8OtGiItpm5wd7UJIlNqqiqoh2yDzrPOnuNRsmWQQuJdDvP5m7WFzWU4EhpBZhsBkirpJVlFWKwA9eVkWGKABD7sMAXMx01p9Y1uHuANPzcNiD5OhTMpRgpu1cHFSTEVkqWSsoMFLOm0FGPoV7oKLTM69CIrRzJ/LJ1bbkXF3StMjNsHiCjL7aTOegyxwrNDvuu1FqAp8u4JxvLAxzIacz3ZTmiWvZvhNjjVC9BgQRM1jbG6BIqkkTtk+ASySjvwZtAwVeE/3oH+e56/bBceD4cnp7O96WX//sLUv3pfLkqt38A);lineShape=1;strokeColor=default;" vertex="1" parent="1">
                    <mxGeometry x="-624.1759552455937" y="539.1599757457175" width="36.48143632004712" height="26.98046422903508" as="geometry"/>
                </mxCell>
                <mxCell id="59" value="" style="shape=stencil(lVjLbttADPwaXYnd5T7PafofAeLURl07cNzX35eCsIpISWP0JsuklhxyhpQGfvo4vrwfhuA+7rfr98Pv0+v9OPCXIYTT5Xi4ne5yNfDzwE9v19vh2+368/I6/X5/GS3Hqx/XX+MT/kx+wVFMo1dwf6c7hXi68XWyP58uC3tfKXtl7zO5BhwKNX1ASOQfOGTlwJkiA4dGySmH2Kj5fYfA5HVIOZArwKFSCRok37PadOC4cmgdt02HyOR0SDVBh1QpFH2CVAbAmos9QXJwed+hJOJmUYrAoXryOqQkjwCFy5myrnQslB1IOlDQIUW5U0EdCnndrVw7DNuVTrZbOfVSbjffKiRxYFC4RsFb+4BA6hDO9hGygVcJSGshMhDrTmUpI6iB7xWa6VypIYCoanwkI9Snws2o7SNlkK+gp+OXjBpoidKjne2Fyihft9Iv3/Vm2yGSc9ahIv3KVJJNoUaowc1bjCLqakch2SJEJHiuY76ocgFJi4MzbeR64fdyiFos+EHS2Yq2EIFR43Hn4YJpHnSGVDqwdWAQUrGojrIPUJVGNikzJfD8QMUMQk8FJUDFFK11gd2jctX2hSJANFA21ElQfaNdLYTcEdhnahofORFtCjLlTb7CTECDtkF9ZC9wG+0dSwICkiluhrIglFDGzs5YCbICnpVi5VR6FFG/ebuvxXli7bDAWf1KHrZ1q31jXCwKAfRRW82QIlsoiKkK7DqJKsAhmOaZNzs0PGVXDk0GL+COrCJVk3MB3HZzeLsptIbbT0RY49oS3s2lwfXsrPMOtyeR5oSS4cZW+gI4Vzr2yuwMc6cJJK0UQAau68li9U+gCqtWFc1B8ctqoxVAEEBTSvRKAyqCh0pMTptzn+w7q4s30ffjduQxmY6DHVqteDlKgMUy/cy4dH133lt8jXTh9pe1yGApxUbDKffZ+2lfUfyy2DUDD9JqIYuhY+jjZ2/D8eZlBZJxhFtzK8H95n9fxB/by8XnW//b6XyePhos/7dfCeTW9IWBn/8B);lineShape=1;strokeColor=default;" vertex="1" parent="1">
                    <mxGeometry x="-611.5697267484431" y="502.52863507857865" width="22.995526700673054" height="31.600340633236556" as="geometry"/>
                </mxCell>
                <mxCell id="60" value="" style="shape=stencil(nVfLbhsxDPyavRISqec5Tf8jQJzaqBsHjvv6+3K7lWpxd6dAb7aWlMjhcERN8vB+fHo7TOzeb9fL58P30/PtOMmHifn0ejxcTzf9NcnjJA8vl+vh0/Xy9fV5+f/2NFvOv75cvs07/Fj8InGYndj9XBZ8opB/r3xc7M+n1zt7/cxudGAKft+B1YEHh0K57NtLoRgH+0ix7ttHR8UP9kIexJOYuI4JkICEM1Ma7R2FtG9fAoVi7J3bt6+BZIUPA/tMZcRHfEN426FQGisWIgmoQK3E4wlJU0AnVEojiRQ0ATXzrmPSky7kBB8xOlTf6r6XtYxlqBHDpLwfs56RBklo4f5E3B0qxQAcOtE68xzmhoKSoz2CAUxFkxCbBIMklK1pjEnTQu1chJIJSRsQ9I86hPGEkslFGJIfT9AtBDlESmPSxbUtth0yZcNXLTXqUUc85pATRURXphqtQ0A9pyLnbEgJyEztn7tDpYo7yFcLq8MyUEeUlF0ZwKoOxZDPUUQnlMacO/KhwmnSfkx6XsHiWowKVHg7aOFMpWcYQA5lLUy6AnRGyWforTDAfojkV0oGbyChakJiiNLcoqaBVD2RzPyHgyFf8k14th3YamXIUL6Lb1Tr16K02u+GNNJbB4EIUMrS7rTu4CiDpJO0z3cnIPWObK92ZspAvYO3/aDDkgBqsHJzHJZ02kDTla9WKnXaqIhLbbjr9pEqiEjvghFU0XkRlE2p76w9mk1kNR32dtpGaLW/NFXbBsjOSsJwkHF2ytCSoCmjT17dPsMhYzVYKWIe4ONWpGYo8mvGOUiglZ56ZQjgg9hrzWd4+W++X8D+/37v6I+/j6WX0/m8vLXuv9vHlS4tDzN5/AU=);lineShape=1;strokeColor=default;" vertex="1" parent="1">
                    <mxGeometry x="-634.2240352518781" y="451.59534011321375" width="29.499439730576114" height="20.65913740643532" as="geometry"/>
                </mxCell>
                <mxCell id="61" value="" style="shape=stencil(lZbbbtswDIafxreEREoUdZ127xGg6WIsTYo029q3Hw3DnqnETHqnOPpE8edJHW0+9tv3XYfh43I+/dr97V8u+46eOsT+uN+d+4uuOnruaPN6Ou9+nk+/jy/j7/ftsHNYvZ3+DCd8jpxUqHGgMHyNXyIDjV9+jMChPy6AGkCyAahCEgeoIGiAMttcAzAZQDJwdQCCEgxQI0THgijAFsiQHQslTC7OgADzOpAzIFlZQ4AQ1glVka1MqkMq6wCqiWqBAjGtA1G9bizQdMubAE/HzXEQiI7TBGR9FoTkiQRsw1YYiucAtnEuEbInEYFYibhARscDmWI0A9mNWibItho4ATpXYmnrTS0k50qDhjb19AhygIogNgwF3VzVVBZroYjr9CKV50hrbnk9gCEUC1QgBxCNU1PSyc3VkiFeVYM4PYDDJPui3oojU0pQcguIA+BV41Olo6er1q+0TrOn0lSOC1WrU0AaJJt7koCctndrf3IcuEqLO6MhTLd9cPZgOxi0I3hZpFnXNDBXTj0t2srxS1Pv3+ivDcqRUxOCbQapANnJuNBWjT9CcpjMP7afI2D4xn10Cjb91/dX20gzcO60utQWjB8vHUfNyLyTD99+7DwA6OL/2+q1PxzGp9ny//Ytpp/Gdxw9/wM=);lineShape=1;strokeColor=default;" vertex="1" parent="1">
                    <mxGeometry x="-609.2384841224261" y="469.9862982223383" width="4.583693699119522" height="12.408057046888644" as="geometry"/>
                </mxCell>
                <mxCell id="62" value="" style="shape=stencil(lVbLbhsxDPyavRKUqOc5Tf8jQJx6UdcOHLdN/r7cLqSEineM3NYyRxI5wxEnuXvZPzzvJs8vl/Pp5+7v/HjZT/Jt8n4+7nfn+aJfk9xPcvd0Ou9+nE+/j4/r7+eHJXL5+nX6s+zwuuISlbCAPL+tC05Xyv+V72v8YT5+iPeOnLeASJ63AZIoRQsQ8nEbEIVSsgBHSbYBKZOwAfSkrsbnTM7m7KmC+CrEzsQzMci4akFk2J8TiM9jfCEHKKiFcrEFypQ9AFTKQ8KVUt0GOO4ZNkTwVPAR0eYQI2XAsiYhNgml0QGWq+ooG0C+cUKgWG1ZGZfJk9gyFUcRAZjccKUCmS5lVGrWKzkASFRttyVuYtkCOJt0UG3cAFgeROsG1F26P3QxOaqAB016kLf2s2RYVrY5CLQk5c1bw9Aaof17gu/xFfWzKs/GR6wjZXlIOJC/0Tz2AD0hAllc6U8pFABisQAr1ajaRqZUqNgkkrR+2nQxy1rGPq82KdZWc4VZLz48NLSD2v4yQF+GmEcAkpJ6Vv0EYJBDDKNllEAZ8CB5BFTXTGTrgY7WxVS/iLjcMuxqZfy+xbFIKi4GB0izhx4f4Vvim+n2eG5vxfVuILH7F+UdxHNTWdddaDtsxLPdPylloD6felNJT/A+Yu0rBCpAdDqB2fuL1hNIyLf5rLuLzhdIciO/yw6Ar0huGPAK5OurI+fteP14n2+f5sNhHY8//j/Ow7q0ztJy/w8=);lineShape=1;strokeColor=default;" vertex="1" parent="1">
                    <mxGeometry x="-624.1086769984627" y="465.9218844080842" width="27.69086312776267" height="4.714699294244838" as="geometry"/>
                </mxCell>
                <mxCell id="63" value="" style="shape=stencil(lVjLctswDPwaXzEkQYLEOU3/IzNxak9dO+O4r78vVA8dE5I2k5ssY0UCu1hC2vDD2+7pdbtJ4e1yPn3f/t4/X3Yb/rJJaX/cbc/7i11t+HHDDy+n8/bb+fTz+Hz9/fo0RU5XP06/pif8ueJypdwmVAp/r3eEOPy/8fUaf9gf7+JZKYiLbwziA5U6xFcqZT0+JWp5iG+U03p8FCpjvFJC8YGSDvF2B20oZpIwABITg4yj9ud1AFcKDaQsFOIAKEwpg5pG0nEFEVIEEIpj0lU6LcuA5pNuiRiskG1LoyxaJQU85OJ51kAKtlSMprFKylQBDxL7826A2LW7DFDSsRWaUgaAar0zbqm1TuUioDHlkbgmncpFgKUo2QMi2JIWKuIBCQEqcfIAVFZt/e87pgtIWpVEfJUKbNFAIXgiBJVJqY5JmJiqwiS8+iI1lIRR7cSUSEASRkR1KzBFBODuo3cAyFzsPX8HCIg5s77mc8igrFZ1Z0y2ZgFlNWJT9TwUsCUDRKdvJQZeaQBx6muwSpNyXFNXeMBZis4rrSFQ0lPVowckpKVMyh4Q0QrWkbOmLsCNTd4cfdLoVLQGmjsZ9Bmd+b127tcAzYkvwIPdAGk0AWMmoyrVmd8nqCUrK2cPULRCnpnABy36WUALsxwyNNfK3edugAJHAZmfu5UEJF2aP1HemVkGpPmEdTP05VmAu9ZuSzQ8nlTf1FYmRgCe2YbiiclGhZEIO7uRmGzsjKNcbTqoYIVk2hiJENxysXrbKDd5rY26MuZgYx0DvzepjVWd9ghyDl04N6JzP+pX4v2xDkkTX9EMXdIWL+MQYK8SIN6246ZoEy44q4zhMBIWseZmfOEXjWx2JC4edk31mg5w+Mw281QXj/o4azfDu/3jAd3lG+FrT4l+to19ilvzFdeSNr0AviYfGs80hvqZnp9dPJrNbf/uzRar3+rjBrzS57G1+jdx8RXFzwZzayBQn8+++X8cbxfvnxle9ofD9SvF/f/+s4Tdun7S4Md/);lineShape=1;strokeColor=default;" vertex="1" parent="1">
                    <mxGeometry x="-350.83962598213543" y="512.4152890090379" width="39.819734058072754" height="66.5291325739106" as="geometry"/>
                </mxCell>
                <mxCell id="64" value="" style="shape=stencil(lVfbctsgEP0ave4ACwie0/Q/MhOn1tS1M457+/uuqqKIxZyobzY6B/Z6WAZ+eDs+vR4GZ95u18vXw8/p+XYc+NPg3HQ+Hq7TTX4N/Djww8vlevhyvXw/Py//X59m5Pzr2+XHvMOvhefJuJnkzO9lwZAxfxc+L/DTdN7AbaI4KrxPfTxb8kbhE/fxPpGp97dkwP6RKQeFd7GPHwONVuGT7eMTE+cK74h9H5/lc+1vhPHJI8XaHjFoRAckSrEisIQAETJxHVGfKTtI8L52IZIFMRKCqolRqgSYZM1aZIWRmWKAR4x1GnIoh/YItq4LiTRMRGoIiTLohBzL55UgRiKTAgWuS8/gZsuebNJHBHSEo5y1EwG0mxCMIohbKEy2GLBJxL8tegSvTmAyKNXSkCoRWALEB9VCSUoeEVhrQJLkoxYSFxVBignlIWrVmwlAlqQ475iESiMV2do6jTItlZObsOKuzirTrqx0CbVJ73HrCo3qoIiVSYq5vqxk5QN15VrK5jDgTKsG2tGj0ekjRtQQcqNE7QQUcLlSGikLuINGoxMxYoJXJkmLoGK6S0A+WIq19skVgeaAWWdq6ZNLyGMf1CATZNJAiZO81iZxwKNAU33zMASaOrlyH6wERx6cIMOJEldroBrfmX5MEZK945VECVRrO79ZC7WyHRDtegPcN0nnTfBIZtbbY4NHeXbF3A3eAXtskdFNhJDWG4pKV8vE2IG7evsEZ6tmUIowvw08wGm4MYbLcLnPVVfulJ2RpABsbxK1HrevDgxZkKb/fOd8CJcf70+ql+l0Wl5k2+/6CSZLy/ONH/8A);lineShape=1;strokeColor=default;" vertex="1" parent="1">
                    <mxGeometry x="-315.5753569085796" y="528.5784537773907" width="43.60559637941924" height="29.48679624986994" as="geometry"/>
                </mxCell>
                <mxCell id="65" value="" style="shape=stencil(rVfbbtswDP0avxKSqAv13LX/EaBpYyxLijTd2r8vXSNtJNZnM7A3x+GReHg5pAe+ed5tnrZDcM/n0/Hn9s94f94N/GMIYTzstqfxrE8D3w5883A8bR9Px5fD/fz7aTNZTk+/jr+nE15nXCLHEyi4t/lFJPEfL+5m8/14uDL3hUpt7IUqL9uzoyyNvQ/kwzIgBiquBTCFugxIgWJpAZ5qXAZkJs4NIFMBlAuTpMY+UErL9qKUW3tPAdjXSLFl7Mg5YJ/J186fDCJaTcq8o4AuqORiewGOqAKkZcCZMqgK7z4pXhCaRpQEvSL7NmlCCQGEclsWEogLDFNow1QDCWKdKLcc9E4BrCv3iVBWkHToE6F3sgCAo9QCJBODVEul2AK02iNwSZRi2zxJyAGXLCBqMa1ySfszocQZ0qoYGSiGDWvEDWTy5qAi2cLw5FdVXiGf15S2qnLG/dk1D3tKIAff9GcsxLg/OwmYZBYFyYhM0ULCUeonT4WjyuqkHgFdMkJ8FYf/hLDDQbNZwHSw00dZRACw462uHaDasw7Unx3RgieoXQKkkADRsFtG9bA4zBajPegBZw1q6GMk4PzQE1DRcWhNMsPn88Zv7V0vkiVdTliw7xQjZ3Lw/H7cpovK/pt9jHDnMf4wU4X+d3xVghktDEbxtLlBAdl8UV1TDno68GblzvxXc334Ws8fxv1+3u6v/+/XeX01fwrw7Ts=);lineShape=1;strokeColor=default;" vertex="1" parent="1">
                    <mxGeometry x="-287.4275130318456" y="542.3502799617552" width="38.494632808709866" height="4.32022254719277" as="geometry"/>
                </mxCell>
                <mxCell id="66" value="" style="shape=stencil(lVjZctswDPwav2JIghee0/Q/MhOn9jS1M47T4+8L1SUjQtJm8ibLWIkAdnFox3evh4eX/S641+vl/H3/6/h4Pez4yy6E4+mwvxyverXj+x3fPZ0v+2+X89vp8fb75WGynK5+nH9OT/h9w0mkEidUcH9udyql/O/G15v98/E0sy+Vsgz23lFw24DM5PMI8FT8NiAKiXkDk4sA4KjUERDJlW0ABxIDEHJ1GxCEqhsAIVICTofUTtwArGFIAOCojlGKgQLIg6/keAAkzUMAgNz+7oBMGQES5TQAplQip/uJG6B4igIASrXRh1LIgTdwbnntZA0UQZQ0iP+p1gG50XEVoEEUIwc9JKBGCjZxVekIMh01rOORiuYBvEGdLgsA5FKkyhaA6C2U4+IFQKGZ0kiMkqggvVEZBV1iU+w68yzxClMADjtic35PzMjejWrOQgEUGNfy0+0LeVQuKIz+5kQM4hMXz9f6BeJfGiNnwgzAX63QxVmAR9JnSzkFZKBkLS7srAsVuKzly5sYdVatA6SFvAPqJwFF84grqgWERsTNirrgNeLdFNYxSiqcBBLtF8wrGXa20nr37AWC6mOLyMzeg+crs815mCpwQM9fbEhRgV9TpkBlGuWrMiuw99ZfVaaAjHXvZrSOaNihNPqruolAaLI4D39UqT9lrwmWRalA/Y+LnaUUwMBjndaskLEIsk46SyEDgMrWm/JeYLmeZDtOOtrDI+pnyc7AUqHMUrT10TsHiR27rmavgF0/2CYu3ObirZHTzNlV4Gw01ewxEVVTDeqdEPvP5EFbhql2vmVyQ5zBiDnAts+2Xk9pAUTqtbaP2BXOUdWKmXUNQP1AZ9HxQOyaONYBOkaMOZ4KJprsgu38Hq8VegDTovrasG6ve9BIotRouE7r2hjzbo9SlnUwM2sOrF/a7ozDfbZap6imYMyZaw6t2/dBa2YPZCzJbiw4w5LtOuHgziWdkT3BFEAhEmkb2Xt8HDqPNIV0isLVelbWZgnDB5LRPsFVQu2jET3cMaeqycYeVUXRicg0DyooATrTmYURruESbUDx55OPP7foxfu3mqfj8/PtU8/8f/ttR2/dvgvx/V8=);lineShape=1;strokeColor=default;" vertex="1" parent="1">
                    <mxGeometry x="-222.88006898412414" y="505.1393552778263" width="29.262313776275505" height="43.401517990379716" as="geometry"/>
                </mxCell>
                <mxCell id="67" value="" style="shape=stencil(lVfJbhsxDP0aXwmJ2qhzmv5HgDi1UTcOHKfL35fTgWSLM/OC3iYKn7k9brvw8H54etvv2L1fL+fv+1/H5+thF77smI+vh/3leNWvXXjchYeX82X/7XL+eH2e/357miSnrx/nn9Mv/J5xiaRMIHZ/5gdPVf49fJ3FT8fXO3EfKbhRvlIM2wBm4jwAQqLC24DgKI0WJUdcAUDIjSalSgxMioncaFJmisCkxBSSBQQQpSSUxJqU0jYgh2ZxByTKDgCEih8AkUmASUVdHE3iTD4DQGxR75lmKsAH0UyPUaokQIFIi2FnhqcEfK5KzVFBrDBvNVGMY94KhQIAajGPLjjKwAfvnCVfZaoRqzCARIycUDKPTtTSAr0OWMRVXwRp0KAYrysVFKbOnDtABSWqLrqFhog0xAVAWh9ZB2gBGadzI/w6gBs5O0BbG+gaE2CRaYfCGsiPNS0991sAo0EKVQSIVIyGTAn5oN1+5JLoi4fUcH4BQPQW8mxNQo1MieCMSdJ0bgGy2LB+UnHVUIPJ4y5QR6c10JBLSmbDJXUa+aDd23BJixbRu1Aem7HqhJnObd707n1rVVvcCAsVBano9XLnBAQEikZDaSWyVXLVxFUbCcrcKgBkTqljOpnOyQw0SP+9u0GNJrs4O6hDT/763E1t4vRB7VqJrGvwlMeS871E1jVoGxrzELQggIZSLJl02UD81t3B+JA8FWSSa6tFn9S+LWnr+88iSjra0eKqC1gZnS6+vWwtfWZxnTYi0O9jsHkogRIIqy7ChnwZU0M3tmo2XVxxXlq59MRF3FxJxpJmaXN1XYHdfryHxHC2A3hHAcr7kRZ4k1ksY7opgXiq+PjrqZ0eG+Lm9ImwoTo7nBkOQt8CcTvEIiAP2wVJzybAZraLrUYWGKNUjkYcuRrt/OuhWi+tVkc38Qri/p8n6qfi+nG7hl+Op9N8TN//317P+jRf3uHxLw==);lineShape=1;strokeColor=default;" vertex="1" parent="1">
                    <mxGeometry x="-160.58767821561878" y="499.41231762784855" width="51.36520020687544" height="25.978547720563938" as="geometry"/>
                </mxCell>
                <mxCell id="68" value="" style="shape=stencil(lVhJctswEHwNr1PYMTg7zj9cZTliRZFcspzl9xmGAU0MyFb5RlFoYrZuNDn4h7fj0+thcObtdr18P/wan2/HwX8ZnBvPx8N1vMnV4B8H//ByuR6+XS/v5+f59+vTtHK6+nH5OT3h94yzhVyaUM78me9kKuHfja/z+tN4Xq8PZGyz3lqyGQAMsWkBiWIEgKR3cHIHhOQsFdcAvCNfAKBQ9C2AKYAdfCJudwiOEu8D5O/S7hACFRBSKJTbpEMktvuAyORZA5LZByTWSUtICYSUC5nYAnzdcxPAqU7OqkoGAEogH7odQB+KhNQOq9TNgRysMWTa6YvyDICQLXxbpiSt8QDAOiY25FDWMkxt51h6CVotZeLSAEq+W9c2aQnyP8u3AV4nLWWwqEquFnEFYDB9xej5XrVme5q6RsgWGY0fkzVdEkCZOJMNXZkcHPCYukaAeRVAaHWjRMpA+wSQFSBQAI2QHEJL0nKHpCIDagdHEeVQtPZNzQdlLbYWcQ1AsyEBZA3weFx1lTwmdegaF8giUkctG3IHhrTI+wJIlDAgquHLVRf2kk5qB6aCZMNpwRc+JKSucpCzBhQ0Swsh1wDEaTlmO0BAjMsdgbgOyy6BrC5rwIwLCpCg9E0ioKY14KQ/DWDitnGTUqHRMFXnFg93p9PiyVqAHHJIZiZASyA5RpHbmMRY2ZOClc/oMysaeKJIxIpA0VWW7zkmRaDosSdbjuUFEKC2+tIBXLWm2wC34WcY5OBE+drGieuD7ltkpi2rWN0MALnq4rLewr7ZqhCLWQ+VgZvrOz9mM864eqmFPLBnrK2ShypsO6dkKKFso+6weD2Qre3UBZseKYbSbAMNhuXKwo/1Hpxr8rantEhIBvKdHteW30L5lfV6HKD6yuOUyfPwRUzWq/NA7BGKR7yIEonKh7341ctqwvEbTZcMvf+n37bvrpeLj1f7l/F0mr8MrP/XnwLk1vwZwT/+BQ==);lineShape=1;strokeColor=default;" vertex="1" parent="1">
                    <mxGeometry x="-60.154090249424144" y="486.7013595246053" width="42.69566349396155" height="46.00810699322619" as="geometry"/>
                </mxCell>
                <mxCell id="69" value="" style="shape=stencil(lVfLctswDPwaXTEgQBHkOU3/IzNxak9dO+M4ffx94WqkmLC1ndxkCisQi8XDgz68bZ9eN4Pw2/l0/L75tXs+bwf9MojsDtvNaXf2p0EfB314OZ42307H98Pz9Pv16WJ5efpx/Hn5wu8JJ5m0XlDCf6aTTKX8O/g62e93hyt7TSS5s08jGQOAkaUOIIVqXgdkodrfSAs14CE3ytyHsJzcBRSmLB1grJRsHWBM3F+pZDJdB1Qm61kyodzWAa2SlA5QK6kAQCNrHaAxvJIDau+hKQm+Ug4AzzS6kr8ee4DnvgJAohZiaCQjoNWocAQ0kLiqxBIBFWW6xsQ5DciDjSQcg1YgbxeC1UgrFF+aWV8AQgXQ6h5SyANTAtKwTNyXqBNtQBpmlAJgpJZAHhKlPoaaYQz+vaIRIEh8HmK58QCaQMuxkblPA53P85rHyNKICsi7UIihwUaW2PtMEJO3DSAmdxEak4fVEKDcqM9mtdwH6Kzmq4JA7dtjTDc1WkHmPE9jT9MVD2vd9daFgiCskFiMuiGAzrRfFSni9dMAnzhjUJPMUd2fcj6i+mbpZWvAg/JcksvQElLQaETnxC5jUWCqk6uvB2SmAlKdcmTJ1wmkPpvrZdkdmBTUqLsPeSYFFXpTbgYZdfO+xZQ5/hXzQKdHD3qkJyfsSdQAl3kmYqka2FB95+rVwzDUFkc5wxmVfKhZsEcVfNkZa7AXpLQ6d9oPezTGnQyO7FSgG5c+9z1IoS4/uzX/394fPlb0l91+P2341+/jSu9H098BffwL);lineShape=1;strokeColor=default;" vertex="1" parent="1">
                    <mxGeometry x="12.378670762421734" y="473.2015012100817" width="17.016765244471344" height="30.485606901581377" as="geometry"/>
                </mxCell>
                <mxCell id="70" value="" style="shape=stencil(lVjLbhsxDPwaXwlRpF7ntP2PAHEao2kcJOnr78uFq7VFeSfNbb3mrERxhhppJzevD7fP+10Mr28vx2/7X4e7t4edfNrFeHh62L8c3uxpJ593cnN/fNl/fTn+eLo7/X6+XSKXp+/Hn8sXfp9wkTQsoBj+nF4ECqcXX07hj4eni3AOpNnFN9mOt79ljI8U23a8MEkc4pVC3Y5XpjR+PxOj+EYhDfGFKohPSnGcj31AQXyhUlx8K9vxWUjrEM+xr8B1QKaiI0ApA0BhiuMKcaUKSlwK8UiJmIhBjav0knaARCoMAI1kXCQr4z+aXAU0oTwmvdQRATLJWOaUKII6NKOB41GgBHJolcpYuKxUwCq1RsojoOKkm6eSlVLBlDis2l0RiRIotWWdRnYX4wZapkkONVBMsNSOTJWpIm4Eyg6gncDXBdGouilZVqDFJKvcWOpmPQwoSA3geoDCpI3NZRSE8RFJTrSTcwU0WAcxQThRB9y4DRHUD9HAupqGXadfCAlanwEc+wwgoLdar8+jhExUDXBDpmZvAEHLZCOMbWDRORCpAVr0AMFJu/3NSt0ANwzgR7COjguX1ANQwzcycZpGQElrn8BlDmiTtv1gWiVFOSTf8A3QMEDdCJUU1cHa+8wlRD6lNukBjqDX9IBGkC7hS8VhUcdZoqgOcaJ3w/SOxNMICXGJJztjGy9WXJrqkJAe2Pd7A8BGtu4fl+TDqxSDByDzsLiXWaIo6Y8CNHgvYDsKSlqLt+mNoY82H6pj4WqBU1rMyLhn1XWvv24TWzfmF1YA7bt17aSr2SjYMcVuO1dApgCm1JI3ouZ/GJDPAGmyWBlNyQDjlPLqJjan5Fxf6irfclhOD5lhHcwbx3FKycwvyiH4XTQFuE/XPNl1gWw1IsiYg7xzRlHPJTuWwVNQ9e0+mjcGSds5y0mUMfls1XksHKfuua4rLnvFsRADxaXp2GRHvwDsj/lQV2k7jaMcrM14HwoPcmLe2+mHGKTMk/VO3atsXR6EMV6hbeB+tbDSCGqNvWcQWLDQfdo5XEGvmFQjsLUEf+qO0CyEvquewwV+3VlthnYq9P3uHI5TdT6EYdsNvieGflrfWvfowlG74t6bzuEMJsP9Ouf/7rM+eP31brg9nG/a7g+Pj6eLusv//c2cvTrd6snnvw==);lineShape=1;strokeColor=default;" vertex="1" parent="1">
                    <mxGeometry x="13.608136449602625" y="459.45202199684195" width="80.15034213937338" height="91.6601469257098" as="geometry"/>
                </mxCell>
                <mxCell id="71" value="" style="shape=stencil(fZbdcgIhDIWfZm8zQAg/17Z9j85U606tdqz9e/tmZ0c0uJ47xP0I5JwEBl59bp8/1kNwn6fj4W39M76ctgM/DCGM++36OJ50NPDjwKvN4bh+PR6+9i/z74/n6ctp9H74nlb4nbmSKZeJCu5vngmZ6jzzNAO7cX8FVKEsBuBKrgKg9oAE8gkCbLeUhEoEQKSUDZDLeWYRKIl8MEDRmHwfyBrBG6Amyu4+kDxxMoB3jhwgYu7TVAsVkFcWCs4CTBEoF4RctKeOxHIf8IXYpikHikAIf+MNUW94AGSSaoAoFIE3AlOyeWU+p2E5S9yfQZcQILVuQOwZdJNoS9Ls3wA5u2XZTIHECqeJ9kDpSaauRiNVcAY1QhdBzeLBli5WazpkSsBLV25uRaqWRyFawTQzRRIQYirJzq5atkBqLfouwqUxLBepthWb10vrWZY6UOAeyKCCtDV625mm9gmUC4Wc3VLJMMIE1BsA2FW9JraVlQB7n3c9oMKhCLEvIM1zBPZ25/umNQ1tVEC2G+fFCC8g398O2hNQuQlVu752DBfA+q0ptnqO5JFmeuIuo9DY7KjY71UxdJV4EntifPWorW++R/dC4t7V3DlIB5cHx2bc7eb3yvX//QNFp+bHDT/+Aw==);lineShape=1;strokeColor=default;" vertex="1" parent="1">
                    <mxGeometry x="-354.28835019268035" y="665.7190471997303" width="4.672539772115215" height="4.665236216357243" as="geometry"/>
                </mxCell>
                <mxCell id="72" value="" style="shape=stencil(lVjLbhsxDPwaXwmJ1IvntP2PAHEao2kcOOnr70vV0NbiZsfJbb3mrChySI60k5uXh9vn/Y7Dy+vp+G3/63D3+rCTTzvmw9PD/nR4taedfN7Jzf3xtP96Ov54ujv/fr7tlv3p+/Fn/8LvMy5QjR3E4c/5RW2U8r83X872j4enC/tEVbx9qdv2jWr29i1t28dE6hZQymUbwHF8bwBapBgAwBx2ACZt2wBJJGUGZApgBWmkc1BboQRWSEyZZ0ClGAEgD48vAKIAoCQrlxSskNknrllmGAAKRfF5KMClrJQc9ewTgEpFiOc8lEoNcNX+DnOUbM0MEletGsIMiFQBW6uQ6gSwzCQQJdtimqOU4njzNqAN5gyA1EGWtwsuUJpdEqEGCsjYn+ewin0CRMmIUGYAVyrIpUJtDqu1Edg0rIAcIFIAbNXg21K0NUFYlUe5LACmBDKtQnUGmI9gC1oouKjCvqdtUHnYB9hjVImDsxdQC2bvWkwcSdmyr3UmKkXQwsxe565aiYE/MSz7WxwKVK6sMEfIZkVEObYtzKUTzSfA0x4jxyKlglfguYVZVCNawbJcPQBVswFc2vrEBl3VAMx+D7B0qm9hVjqCmF1HO1kAQhFRu/oJraOBbHo0p8EcQlRtfvII7F9mnxzziNGGm28u4Rrvgnp7lAEdI+PCnyulGdx+GVFCfTfFc7bbz/4r5qh6MWKEuNK7XK8zyqFmYYDiItSgGDGArMsGt1+3h16YKGkfBhiJHUAoI5fSyNICKJRRntmPKG5Q2KoN1XkFWVTf23NZKbqhVuBpwVRpmBtksrYPNm3awlHDtHFDUmG1aVNgqHraSiqkBsvTFJgXhQGG1TSeO2BkgVqhJuLZpVyHk1s6VZ0STrDiTAmLO4ZFmGnT2m4UNtzE8qpETcQheuel5JcuY4RH5wUeim4BVEogrP3M4wBY/vdT1VwPFypl6+DmxHZvzmC2yUoAGAA14374ZL9rtEI/3s501QylcBeC0SciAH73I7oD8LhFeN8dgNkz8Gh1x2D2aKCv7jDMHp1HwiDm5fehvevcuoRsw96Vsx1PkPYPQzMupYOvPJYWelFqARTzSmnbgQxdFqztE1Tma39s/sN4+v3i0bmKZwuQP6t8VR03B+/jQ7/TgvH82J3ZdXt7+H9Bd394fDzf713+7y/07NX5MlA+/wU=);lineShape=1;strokeColor=default;" vertex="1" parent="1">
                    <mxGeometry x="-329.3944009680713" y="329.93570633034267" width="198.62260790015603" height="19.96210081325944" as="geometry"/>
                </mxCell>
                <mxCell id="73" value="" style="shape=stencil(rVjZbhsxDPwavxISdT+n6X8EiNMYTeMgSa+/76iGNhbXO0aBvrkbTiVew6F24ebt8e5lv1P39v56/Lr/ebh/f9yFTzvVw/Pj/vXwjl+7cLsLNw/H1/2X1+P35/vTv1/uumX/9e34o/8Pv044J9l3kLrfpw+1igt/v3w+2T8dns/sg5Q62xcpum1fRKO193Hb3nvxYQYkiZ4AkoQ8A1R8I4Ameb5SKVLJCRrFzT4XL5HESJvofKUcJCcS1Ch5djolKcSH6MSnCRCrREcASfLsQ1QpxOnkxc0+BHhVCCCLuhmQpZIrZT/StACSKIlSzuLNCUEcuVJxEuYoBTcCfRkQxo0HQKukSgDZhlWXMFwGNFtLqK5MfKiI0tygaEElpVHD6gSlUapxVP8CcFJIHmqWMCcOLcX6AS1f5zz4Kp6QRm2j+hdAkkbC2lCtc0/7KI1cqalEc0IYLXUZgNLQCdBo/7S04gBRUkktS5s9CNzjOhhl2DtR5jAKzxt7x+7TLK0uId6yz4Yv6ByBfZ3LNEnl9q2Z+NN8rey9Dt7fvFBZ1dwVj03NISekM3tIZ0CfvqQNkGPjA5KQOCCrBTCyAEBXrdwIWQBgysiXQYGXAWWk9awzGeEBUAxZeDoW+gkzaRc6O2HfzOzkhYEYGX4cEmXLPs0eu/Fhy742Y+9Y57cRjg/7zO1TMfdng7w3gpr4XOtMI8BGjVzWX27x7yzDkXNRm2+EGqocUEzRoUgyBcQ5pj0JvJftWPaju/8TIK/YIo1Ab00cMwPRCJkBgiRD2Vf4SAelLwCISHaCs60QPPUBg9+qTj8WlC1pYcem0uqDeInFAiLTU9EOKgAYRUKAeXMlBJpdCRLPXClS1oaI9CZKUBskcZCpxZyAL6T4uhA2gEbXNkjtaEjD0y2si3nDwnxHwrqg5gSuGPpCYk4oQ7hurTxm9YyNska/wExkKVCRh7UtGEClGgOFYE5A3AKJki5KfBmGcWzgW8utiRLWZyYMIRCKoftK5w9kVJwBIB7PBsRqMQQXsgYqY54t9liGWVRtULsyIx44u52fjbANQKz2gEqy5izVf6jvDXujSLrmoPZm9kADJXp/M0mQALZcrAZ6Q92SBKztA+1MZ+cO9r1G7c1DAQZRof6apwvMIVbSyNdMRWgBNged7QDY83j+26PcdXv8+HgBfDg8PZ0eEM//bl8M8en02hhu/wA=);lineShape=1;strokeColor=default;" vertex="1" parent="1">
                    <mxGeometry x="-325.2303455633987" y="424.7800695550261" width="226.5898486662736" height="23.645211824765966" as="geometry"/>
                </mxCell>
                <mxCell id="74" value="" style="shape=stencil(rVfLbhsxDPwaXwnqTZ3T9D8CxGmMunbgpK+/L7eGtiG3GqNAb2uZlChyhhzt0t3r88PLfhf59e1y/rz/fnh8e96lD7sYD6fn/eXwpl+7dL9Ld0/ny/7T5fz19Hj9/fKwWC5fX87flh1+XP2YJC1OkX9eF6RSz79XPl7tj4fTO/tCoVv7TD3N7UOgEKxDpNyAgxBX49A6SZg7aEjcrEMjLnOHFKjYkFqm1oFDo+xCClRBknIiEeNQNSQGWWWKNqQaqEXgUL2DroQ6d1j2Y+ugaQB1qHqCdciaBhBSYyoWGjmSgLS2QiUaB010AFkSpmpDip0qOEEKNQuNqJcG0OibO4REFaS1Z0oOfFQAHbpQt1BiYnCD3ikWbw+qpvYup0wNxdOp2f0DdRxPdzWD+wfmAfwVd6Mm0wO6SygCkdo7qukC3t/xQDtUAaBTh+wyFKmCfqQOwUJCMcQCMSHdnyDYoUbvwCgkoWy7RVCgI1gLRZtVGWmb2tsxUnGO1N7mKA/cTi/gmE8V06y6C8PuuJTAxsODd9Mab2h5A0TZ2WdMyyou/oIx5+JPY+xOWWb3L7Ct/IXGbQiB6QEWENrIwMRcaOlIE25ltNiMKgcSdohbWv5XB1URDnQy1NVs2rgkKQ06gKlqs2CrkCLsdjoxuw0pB6iN2mZiZoETU6e+uP6uIxE0L9UVjspFoOJU5eLFlIIbayPX7VR9NcAGVV/JzZxECZyQM7EFX9OGA+qgwqbYtEoaaZhqVKeztaOCOizC3AoL6cTgDopN18J6gHVQQjrJqYAXVIfBx9W+QcWpWHWDlnFXXaXNesCqTib2ZWOfAd0UFrbKy1iB9u5ttFwY1IyHLFjtV1U/s98UAE3lTc/uShzQj9ijuuMnAg8arvZ8Y3+nZUWgzuHx3ljtsRZkL4vUPsJ4/u3te9teP/48tJ8Ox+P1nf7+f/8w16Xroz7d/wI=);lineShape=1;strokeColor=default;" vertex="1" parent="1">
                    <mxGeometry x="-372.73610886329493" y="477.6404525009673" width="159.40652774941054" height="21.615015575018788" as="geometry"/>
                </mxCell>
                <mxCell id="75" value="" style="shape=stencil(lVfLbhsxDPwaXwlRb53T9D8CxKmNunbguK+/L9WFHJMLjeHbxplZLcnhkNqEp4/dy/t2493H5Xz6vv29f73sNuHLxvv9cbc97y/ytAnPm/D0djpvv51PP4+vy9/vLx3Zn36cfvU3/Fl4jnLqJO/+Lj/UTMn//+Xrgj/sjzf4SDkrfGlUeY5nRyVqApMHB3AlrwnZU6tzgi8UWBFSoljmhJAp6BNio4hijhSrJiQqIOjkyRVN8BQRoVLWhFCpgE/KkUrTBAk6zAlF6qALF5g4A0Imrz9JEu3inFDZ1sEHSuCEek3iIHCjAipdmz2BM8U0JzRPIWiCp4IIaYR4bQfyCF9GDq+FJofwlZp+vyMGUm1t9MonHr5fhNwMPjeILzpBolygIsE3p1VEDci04/X3ZGJQ4TW+Qgmtv0f8BtlRD1gntCvCPZJRlhLjkD1bQr6jiWAJyILbyiw4UEZVq6NLboJ2SBaVwiqtd3RtTLtA++p47aiJAqqzRGB151GZRTamasPCZ/hq+zJgnfKqL++oiO37cV+aMcuUsKxrsvkBXt37ppj8R/D97K7x3RQYG5cxuq6gO05kKuZHjmeEtO4C7I12ekifYbN7kFDsnsAyH1DQonotI9EFnDeekk5rX8jwyIxmile4J8hQrqs9AQ5lHu+72UQSIMhiYXu5jXVptrpUs37h7pflyBIKLJysX2Y5Sm401GzBY91vSeoAGkhWyGROKNTACbKkRk3IPGb1bA22hDLSMFu0o/HsBE2G2XpAlekPCHHs7QMv8kUhuBW+DTFO8MW0m8M27OxU6K4DbNJZ1+6+D9/vtSpkriAPc3aKtAxl5+x22g0EdM7KtFsYQp/hTbzYgwWvJdfc8KdZvBov9sRAQM6uIbWMXWlWr2zx6Mry6OX3Pl4ePm/ab/vDYbmo3/7f3szlp+VWH57/AQ==);lineShape=1;strokeColor=default;" vertex="1" parent="1">
                    <mxGeometry x="-349.39982341875066" y="585.9866610754432" width="173.53648481273194" height="20.771157479965495" as="geometry"/>
                </mxCell>
                <mxCell id="76" value="" style="shape=stencil(lVfLbuMwDPwaXwlJlCzx3O3+R4Gmm2CzTZGm+/j7pWHIDZlqit5smSPxMRzKE9+97h9edlMKr5fz6efuz+Hxsp/425TS4Xm/Ox8u+jTx/cR3T6fz7sf59Pb8uL6/PCyWy9Ov0+9lh78rLhLHBZTCv3WhVirryvfV/nh4vrYvFIMFBKoyBqSZpBjAnCnXMSBz368DSqECAEWoWpeyAuYxoDIlewJnimUMaEzzbACJKQCABMr2hKiAAACFlm/XWaIAyiCNcjb2gSLIkdq36u2RP0Kp2QAoZmg/s00pRVACtXf+FBLkv5DYhKqDeH9x/qfOkqFDNgBluqAKSOfYBmiQpktKLU21Bhm51KjaGLQICZOCZ3+CoBMqiYtBo0oQMNtmjrVHNQI4nsb8GcDFEAM17FK2nbMtDEOw9pkYtbLmyNpHEtQJzStq6CkYVpmdPVQK6VL1bj9j2hXrfyIGer00glPTTpJhp9lObhR5bB/DFt+W0AjlevHIiWnuK0MxchyqVHGO2DW/4MZpnhTKioBi+DKg3IycjPtAW90pcOxnjoaak8icoKbq2CyWeYW76o8Gs9hKz4UYj36nR7V0Dfz4clE71zbyFSiRKurJslVSX/kYcDPIA+7P6NtzoS/Ql+Dnjtqjq0WgYgV1ETRQtUBsa6DMqnD/aIkqTBkUWbPh7DUioHc33d+wXoTeJlcVztB/N2VbgjeLbQZv9njebGq7UVTgzSj4LqsN3uy+fCH/1F4f3m//T4fjcf15uP7u/xZ0af3T4Pv/);lineShape=1;strokeColor=default;" vertex="1" parent="1">
                    <mxGeometry x="-153.6485305743613" y="606.0732436481321" width="106.58844105868206" height="13.261895565389295" as="geometry"/>
                </mxCell>
                <mxCell id="77" value="" style="shape=stencil(lVfLbttADPwaXYl97/Kcpv8RIE5t1LUDx2mbvw9VYVOTa43hmyxztCRn+NgpPrxtn143U3Bv59Px5+bP7vm8neK3KYTdYbs57c7yNMXHKT68HE+bH6fj++F5+f36NFvOT7+Ov+cv/F1wnmKaQcF9LC9yI+/+vfm+2O93hwv7QpWtfQvr9j5R8BrA/cirgCAAtoAKToiZsrMA5nVAKhSaAhRHHgByohYtIEaQJPletYAEgi6JSrNpjRkAmJrhLVAGgFqoaJeSUN/WAS2R02kNlRoAsKMcFMBn8sAlFuIMD10r1+0bZR2z6y6u2XMz9hmwxtwT0u0jeRSw6FJnqFIp0J5NgmJP2fXacW7gQJSFQ2CdIslpQzmSGLKOOXRlrQGSPiFK1Ig1JqdPSI4KiFpoKzpNotSMXGoUnD0hgHrm2lvWVwylS2UNkHUDiP4WIOqgQ8Y8CMBoQ/KGY0gGgBuAAIp2SZRRoT3rPhyoYBaSZkF6JK7mZqvZYx0Fk1JyuDqLGTxwKoh9KzqhnhJKKNsEedEVPsH0I5l1sBLYzp3oen2vAbKOQYQdcPl7HUNkXP6N6jBGEpLR3QApFNMvwq25Y6o5+07l2mQzG4aM3woAMjtZ81BF7MClKn1bu8R4VM0O6GJgIe6uDYPx8Bl3GAFUwMO4Jc0dARTouIcJ96iix01PAGglGXfJWV0g6GFZnZsIOsAuwxcTeAVgeZYdArQAR9XbnBbwfdc70Je9CAXIwnXRXOiOQQ9zvYV2+1agsId9pMloBiIa7KWU0MYz+FM97JBDvKXClXPIZ4kUof+GL6m7fI8eZI2voATuvX3dtpeH/1e9l91+v9wUL/+3V0N5tVwr4+Mn);lineShape=1;strokeColor=default;" vertex="1" parent="1">
                    <mxGeometry x="-140.24055972106635" y="654.9554292566352" width="105.54327076824438" height="6.816301655791449" as="geometry"/>
                </mxCell>
                <mxCell id="78" value="" style="shape=stencil(rVfZbhsxDPyafSUoUQf1nKb/ESBObdSNA8fp8fflwtDWlLvjGujbej0j8RgeO8nD+/bpbTNFfj8dD183P3bPp+0kn6YYd6/bzXF3sqdJHid5eDkcN1+Oh4/X5/Pvt6cZOT99O3yfT/h55gVinUmRf51fyPLm8xm/371e4DNFcfioFNs6PkQq/gI7IoELYiIZbghU4jpBlDQ6QqjdyL+7kImbJ5hJwIeilIYbEmlaJ9RGUkdCASapUhgI5nRdJ7Q0EiplYFFTasXhmZgBvlH0aQsUMD57ezKUheGV/fmRAsiyEVr2smBSJDxePFykzTimV1ckpoSCeuVEahSAtuco+SyYFhs2KfqwFsZ50NGHYonDwijJm2RHIB901HYW0gwJwTudShfXGoG9SVKJCyYMLaP28lg1KYwtA9VnW5pcJzRK2Ofs0yCw6RlePZ5J0PltLH/DY+Gloc33el3DVxn8zbic21VANWCCD6ilTFCOW1flhSgiDpFeyQ7mrFHxOTBh3yjOsRIaMb6BvUlzcf5XQqLo82CzS4Ew5sHj81Clv/nH0VYLyV3D0wgNdHpricF31Wr1DbQkV8WjDLU0rxg+rJopgyjZbKo+rM1GCTApk3gXWobjdunRS/kwns/cs7pc0GA1cF+hFnyB+4INvsGB2HvsCn7QneLBxuPaaTmu8Hz251e+hff2l9hluIYfBnOC+wuP/deai8Lz5a7VgsdFQUyhQHDcu+2Cj32NXhHcfWv/bbw9/PnGeNnt9+dPlMv/x28Se3X+npHH3w==);lineShape=1;strokeColor=default;" vertex="1" parent="1">
                    <mxGeometry x="-136.06553396215145" y="717.6536302109835" width="126.89556183617765" height="4.104480904078855" as="geometry"/>
                </mxCell>
                <mxCell id="79" value="" style="shape=stencil(lVfZbhsxDPyafSUkUudzmv5HgDi1UdcOHKfH31fbhbYmNxojb/J6RhLJ4aFJHt72T6+7id3b9XL+vvt1eL7uJ/kyMR9O+93lcG2rSR4neXg5X3bfLuf30/Py+/VpRs6rH+ef8w6/F56jHGcSuz/Lh5Qo1H9fvi744+F0g4+UksKHSiWM8Z7JZUUQpgwOaDdKmuALhTgmiKPiFKGQB/jgKYjCMwUHLGbyReEdOYBPzeJk8Oj+2dv9A9UE8JWixjcfJxCCkqgYg4UcCEFlitqjEiiDE2rTjI5ZCNBHtRJrG6InQSc0o4MmMNUMCVlfKSZyBRIq60xw8ErerTpYGZHE4yOqIuQmDRDqRijaTTkSY0LWV2pqYRyIoMVaPBXsV69tKNyt+phQqHpLQPnQCEmXpNICgWxY68NqdKKMvFRIdKgzE6PAFWItppTJMz5BGz1XBUwwNsSMpbHxUhSq2EtVS6OlXBYc6U2Oeiw+o6WWo4wivVFrDNiGTT7EQgW5tWWcJiShBCL9UVIXLKZ2hK6uWXCx3FSmXMjhshFNQrRA4BNMdW0pV7BfjdEzAfv1k4TU69atl5D62OZoCt0Noy5nxdS6HPDS3Ec1IXDfYtiodaQlwjjMOa8DJ+u4NRo12FkCqpXzLKMjLdKnj9GwZKqA1D6gjcYxMzyECr3UhhHRhBa4AOQdbVNsUkLp4Pvs0vFzQgElud7P1nHJ4QHO2co65xPocM6W7pr7DgO8aSY1woHVWdlVDwdE12W/OrTAMrypeCXcw5uG7nqnGOHNEJO6B0b2mimJe8Uc4MU8YSocYRxFI9B8R0CfeyLdx7fF//fYy+F4XJ5zt//b91v7tLz95PEv);lineShape=1;strokeColor=default;" vertex="1" parent="1">
                    <mxGeometry x="-147.73481657588786" y="776.7243509413306" width="153.75443499511607" height="8.365762818984194" as="geometry"/>
                </mxCell>
                <mxCell id="80" value="" style="shape=stencil(lVnbUhsxDP2avGpsyddnSv+DGULJlBIG6O3vq53UYSVnT4a3sEheXY+OvDu5eXu8e9nvOLy9vx6/738f7t8fd/Jlx3x4fty/Ht71105ud3LzcHzdf3s9/ny+P/39crdILr9+HH8tJ/w56fVOUhYtDn//P0mUT0++nhSeDs9rhUqZrUIkCUAhU0xGoVWKHSgwiX1D0ydAoTWq0SjUQgGY1DKxNal0yhUoRKrWpMJU4rZCrdSzUciJWgYKiZL1IVWSBBQCdeuDdOogSqVQt28Q9QEpMOVuFDiPIy4q5EqlGoXYKTWgoGG1UYoCE5cyNVut+kogv4SkWZ9JQJ4lkVh5rW3ZludOJTn5guQzJZc0qiDJy3GusqE9UcvOZUCTCFIWk29/TVlAb4gUbSeoTxUUdvOttlQdSFn2HkiDIUrE1p4k1FEKqFqHkzrMwGFfolkoA3s0PtZ+7YoIMhCo2SYrgQIoUZUPHokQTgTvb0lUQL7m8yvs4Tga9lyhAYJE9B2myIeQNI5snuUbbjE/nnR4oPpRwLEd1gqGFBJbDz0M5N6Qz9b+rk9A/GV4d5Y/Y96GfLXx1wGdQHzE17MyAFSfKi9eHg1j8TOgnzFyKz6TfIPyDkFVvsP4iI1PDAHOGKFYphfgApoC1MD57Oe2ymcQUKbWpgTABmhTQAMoOPa0oCvgAgDiwTJW8ggQNZ7BywtMGIuXZzSzPaAs8vD8PPkrn2rINiBmq2HmeMLz54ZEA+mSPOLfMkjeut5gPEvw8hUMABnjYd0vEIDEUaarDcmTQR06EGZEAQXBAz/WiIUbYLIngYRdasiISN/n5V0CdEWDAOQYh04YhKA88Hg1wSo830+AABkHDzhbTWBUQHEsUmd5GZx0Q56tvDIItCiptRNDaVCenbxyItAwYcDximEhQAmeYSmDQwMj+PpXhsggX8Ez6Kz9Au1xDCsXWA/KiG1+M17y2A/gdG1guB1MN4CItk6/aUuFA756QJcIGWXUArIB0iWlIYorHlFiw0tY9aRJ1zJEQhfWbX0okPRpjNjmgCGpXPZg6/K5Kbb27BycPNz7pxrlwSouy6t7rsfg3p95dOwqoKgHcvNNHDGLKNOewfhCSEHB8RotO3Rdo6jj7xaUSIC+UVjrNqgatgSiqriZbFXkc+Ve3v3Zp61EuAy0PN2zNXgb2fq4SlyBdQdh7boNWoUWx3Xj1vWlK20dT6j2lO4Fq6DzD9539mngCyQUHwRrvVOiO9vpGmwZ4WhkhmnodJzqSxqJAnbbG5Ugcb/gdoKodCGwCVLfhel2r4Co4KIQvULFJpVZATvtr9uvviFNUbriwye/AFxX0B8fHxweDk9Pp+8V6//7DxT66PRxQ27/AQ==);lineShape=1;strokeColor=default;" vertex="1" parent="1">
                    <mxGeometry x="-552.5713574198951" y="445.05902408194106" width="364.32053008331604" height="184.7194381696272" as="geometry"/>
                </mxCell>
                <mxCell id="81" value="" style="shape=stencil(7VjLbttADPwaXwkuuc9z2v5HgDiN0TQOnPT196VqrKSl7AlyLXKT5Znd5WNIand68/Jw+7zfCb+8no7f9r8Od68PO/20Ezk8PexPh1d72unnnd7cH0/7r6fjj6e78+/n2wk5PX0//pxW+H3mZdI0kYT/nF9IIgn/3nw54x8PTyt8yJTzQNBMga8TpFGRgZCYcrtOiEo1DoScSdJ1Qkr+SJVJwZGyko5HakwigFD6AWZCJAVeyo3YERIFYLQRYvaEio7UuhNnQqaECS4OzayKkJCyJzQQByMIj4RKGXnJ/i4joVEokMDBEzKK9GziilArIGSKo5cCMzHaIlFqfouG/BqpbowoyE2RwoagKNRKSX0gKrIhErtACEVkQ+4CmyUnlNAOFtg6irpSAYEoptHxSEmoAQUVS6YxclaYkILqxksSYfbV6o0ORgA7NKtkYxUIsPJZUYljoJkaWj/1qrXgNQN89gLlXqYu4zfqMbwCfCVRhxdkr1XJ6vAVrW9ir86fCQRsEuKIt6zG67cxXpaEQAWGd9KPsMibf1p0+AZEY3geK3AiBZqxeLmuk2B1tHxw5TTBFmL5tjlPQPkWe/gXexPKN+0lYfF/Qeubgn18K8oHW27Mz0AN4edwLvg37G0+/9/wZ80OD+tJ7umy0iOKb+nlY7U+srf2grngMzqP5X9w/kFz16SvcX2hAPS1ar1LQjAWZPEChgX0vfhNwtk4zKjHtF4wV+M1anvV5sqRoBXO46X5WTZZ1gKRldRr4NyJW5fFZYL4LJ0658fw+zH8/ifDr/Siuwo10miqfdSdCdoHmcsE7m1ppSAFgtCNgjIOtTXW4jo5rgIheC/Zng3EgX0RsO96NNtxn1RmfO1f6VfwPCaSFJhIm85geFRj2AdZMpwFmeLmXgRVSfaj4zQbgTQN/mvFQoh6rfSEWeEF5Jx67Qv+VtnIbHoD7I0be+fOdVkDPkEne1FPeOe91Nt4e1guwe4Pj4/nO7T1//7SzF6dL9z0818=);lineShape=1;strokeColor=default;" vertex="1" parent="1">
                    <mxGeometry x="-560.4699348928714" y="612.7479257963148" width="45.66715689154921" height="52.34148649546114" as="geometry"/>
                </mxCell>
                <mxCell id="82" value="" style="shape=stencil(lVrbctw2DP2afcXwAvDynKb/kZk4taeunXHcNvn7gvVQFoHV0frNlgAuicvBAahL/vTj/sv3u0sKP15fnv+8+/fh6+v9Jf92Senh6f7u5eFV/7rkz5f86dvzy90fL89/P319+//7lyE5/vrr+Z+xws83vd5JwtBK4df2pJX/n/z+pvD48LRXaFRlVWgkSKFS5lWhUMhAgamkVSESR6AQKK9bakyJjxXG67goVKYoxwq1Uq2LQslUwKFrJGmLgmRKQKGU+XoqsG4yAIVEvP5CriTArNIprofOatYOFIT6atakjgNWkkQlrwqBajpWYN3SqhCFcgUKQrxaKQZ4BlY/rGco0A3Dhqt8pgAiKWfiVT5SBF5Lmm5rIAUqILSTkHSzfgEW1de1mP0LsE+s1KOxT0fyGpTmvHH68LqCvjYe23x4PTenP3cxFEBIFBsRSVMZeIypr2iUKjXgMaawgpFmTQIH3nBhk2eqWH49r4ZgRxFq968hHlGOWahTXMlQntd6wHV68EDe1A9N6to+IK+ogXBO97PaXxhWDz3vmmAKYxnuPxj5Mnd4YP9m5CsVEJ/Ov4rDEFFmMd0SMpBgeZPAiQLI4GzLhlYyBvHg12dYZvS8q3+LUAMIl2e0bPL1JD7DWjIKtqfGw2r/GiC/cfFZ02QXB/JlBcSK7ckWoCuu82zjrW5PjvDNyAtVsL5Ye9Yyy/6RvLFng/klE502+T4tcJt8C9QBnshE+01eSyCItw2NN/kEmVyeaLyTR1RRve/2g+InUXPnxfLWXx3ic5zZtPMXklfGtu5fuS/aT7C8VeOngnzUam7yS2C9C5OP7OSxfaJbHzUPeRLOnbzA+JFk5REjE9ubjHwE68tEp708WL9Y/Bz7Afiv3oxOHuCJsiNnf5QvzcbzkEe9mG0yTvbTbb0e9gHrd8s/q+D+lpLZvzY9qPmcbHAnHwFe9Yn2O/mM9+/WZ7i+x3PUATTbAKh8AfnVXLyVk3iw9bHAfGmT7ez3D+XZ4U+G52V3XsTnr8mjfsTvR6aFbzyvQP7s7Ynz3fvrNB89PoB48PGG8c3Hs0zEuDFfcL24mo94fZfvCdjT40mZFf9GvCpwXObxsJz4y+LtWT5+TN7jP96P1heHbwXkV7GTtSGP66PbPxx7XdkPQz7P7ryIb2Q73RzxA/I3Of5c5kjliI/5+AR8PlJ066N6F+04t+J+Nrn+qJ3wZ2ufTg3274YfKh+usN8Rw+cjxEO2g9kW4MSLbT9eT+cb0doH8U929aVCvsFX+BueXyVjfz45r40fnhl0JG/wNsN6zfN0u/4a5WOep9v176gfzDYeSj/p15KbP+B+Ifr5BswX07+M+QnATy+fT/YT/PwH5mNw8yXEJ7ONB2lzAnlbPyX1bH7l5m9onuDmRSJz4nfUv6/xIBvC3IY/p/NJY3/uJ/Ou7uarCc/HVvwf81s831vxfMyHoX8NvxrzZ2jPuPorM+SH2V2oxJP5rakvyigQnpQ5/dvkM+STzdbf2GF/HbX8GAWBt2BRPbx6TJdAFTVWe21W4J2WlmyTMhlaVCkQ2zukAE6slNXcvwaYMTl7eTghrpbCJSivAdxMyuOK5yhixFdImrFmphMZzxyzvRTSI6MmXoqdAiXctUm3NELTBl1rKeo3d48U0b1ZsRdVrImDiH20lUm237yu0CxUlAypcePJ/HdcAnG/HuwwvWU83BGLFh2jUXcX/x2Pv3qfaLsp4HmrKpiGT58gQjQUmlVACBmDm7mqRkE9xHUN1BV3Gxz6BLqu27n6+O4E9dHdDibenxwpNPcLcHLQLdV8P9WRgrlL2BnuSKP4PeGfKH5P+BBmnjQUQHR8/AOgcwX94/17o28Pj49vnyvt39vvk/TR27dN+fN/);lineShape=1;strokeColor=default;" vertex="1" parent="1">
                    <mxGeometry x="-703.4726682104149" y="262.31360947097073" width="506.891586377516" height="407.77809770349995" as="geometry"/>
                </mxCell>
                <mxCell id="83" value="" style="shape=stencil(lVnZchw3DPyafUURBM9nx/kPV1mOtqJILlnO8ffBZIvjYXOnFb/t0RjibACci3349vjp68Mlhm9vry+/P/x1/fz2eLFfLjFenx8fXq9v/uliHy/24cvL68Nvry/fnz/fvn/9tCG3T3+8/Lk94e+bnErsm1AM/9x+sCqh/vfLrzf80/V5wvc24VOQXs7xJiHM+CI5nOOT1DzhcxIlz69i8/NLpPpokGKTQFVpzOAkbba4BQmNCHRpswnNTc7nAjGLzSp1lWrEpx4EEPBHEBusS5ij3KsoUcmDFA0FElEpm5TZS72IkjgXHc/bBeJIrfsCTfpsQ2tSE8mMIhUEPBmJ0S3J9t8xNQo9oXmkC+aSEoGext97thZJJFvdiQ0EjEa6N4lzHDZHM4GKJ2QngEgE8lLRnab36iVrUpiAjfoaAtELqNNI59kGLWLkhOokAKkxdLyfexmTNUkmPioBFYqSSRByRlJyPKmF7PoX0KeQ6tzKOYC9kdibnBJ1dmiUSgz2plHqLOB8oUTApM4neGcp7IQgOhen0ybLU+8MAXxaR9TvCxga7WcG4qUYpM5GW6S9yn2CJyRKw957OpSOR5K41cNUlnbeCSOpYjV7r2C11qXMJmy5Qni+iUGmJhoFj9pcOamNCeV+KWDlZF5qCfXJTh4sUcWAHjstNW/NMI/YaEMneKiDkmgLcTZviDeKj2nB0/kO8qHsXfEuPozoH+ztFF8y4hPxTxjRPM53RP97eDa4rProO/qjvUr1X/3pIwLFY7x0VMRZPvQFT+NbI+Ijm2aXfFaa/xFZ1/0fGOtir3c86wNxUPIhfyjnSl/yjQ0f7p+lvrj/c0E84ysVi4g36n/0D39+wGFr05/nf1/8Q+wNozsc/U/8GRb/xNFBzvRRxLNtK4wJ/ZiftH5/Dh9xEfLxuBJ9DPdp31/ZaJnQPz7bMf7Jg/0O+3Qi+DrYfsdHPq3j8urzAO0XYbTP4wUCK7AoBgJZMuuoCVPO3mmpdWw8u4DS6dWTIsFs2ekC7lFOMN9XWjW+wEBab0s/KYNtzprzwjOxsBXfcMTXPqjmbGTXObM108kjLdTlsTcSh5SxV+aRXGdbDXqVXiGsW1MYzfZsK4O7JceTGJSMtRBpa63LXVqho2itEufnK7/r8sUYyN3pgy73C9v5/sC6dy/DIztd8KWpd+xPHhVWOhrCMhF5zyKJ2tsgxP85YvY6OuoukLnVaRkC+dWS+xVu7KrRQLQ06GEX6GOfPcsNnUPdMj2hdIkz6XWlq+LW92aVeqY3s9lw3e38Hiftu+oPwuAVag33Xc+vyrYzxcht91nETTFhCW13ciQQzqJQpK2NLf6sXcFda+O00fHm1HOJXf4UVMgnPLbhGLaenCl+mYA3CqATFeif4jsTJ2z4HnVG8wtfeOeqhCXv4dlV1KpPpdc+QRTmlzL6ygk+RsTzjdcy4vnEnwPilW7IZblTUhqvtujPnw8TquONxFfv+JPxkCKrbP6nG2D8yTdc7+H9w4/XaV+uT0+3t3HH//H1m/90e3VnH/8F);lineShape=1;strokeColor=default;" vertex="1" parent="1">
                    <mxGeometry x="-165.24858038107322" y="723.4486850861892" width="215.40445638197662" height="98.15777264383041" as="geometry"/>
                </mxCell>
                <mxCell id="84" value="" style="shape=stencil(fZbdcgIhDIWfZm8zQAg/17Z9j85U606tdqz9e/tmZ0c0uJ47xP0I5JwEBl59bp8/1kNwn6fj4W39M76ctgM/DCGM++36OJ50NPDjwKvN4bh+PR6+9i/z74/n6ctp9H74nlb4nbmSKZeJCu5vngmZ6jzzNAO7cX8FVKEsBuBKrgKg9oAE8gkCbLeUhEoEQKSUDZDLeWYRKIl8MEDRmHwfyBrBG6Amyu4+kDxxMoB3jhwgYu7TVAsVkFcWCs4CTBEoF4RctKeOxHIf8IXYpikHikAIf+MNUW94AGSSaoAoFIE3AlOyeWU+p2E5S9yfQZcQILVuQOwZdJNoS9Ls3wA5u2XZTIHECqeJ9kDpSaauRiNVcAY1QhdBzeLBli5WazpkSsBLV25uRaqWRyFawTQzRRIQYirJzq5atkBqLfouwqUxLBepthWb10vrWZY6UOAeyKCCtDV625mm9gmUC4Wc3VLJMMIE1BsA2FW9JraVlQB7n3c9oMKhCLEvIM1zBPZ25/umNQ1tVEC2G+fFCC8g398O2hNQuQlVu752DBfA+q0ptnqO5JFmeuIuo9DY7KjY71UxdJV4EntifPWorW++R/dC4t7V3DlIB5cHx2bc7eb3yvX//QNFp+bHDT/+Aw==);lineShape=1;strokeColor=default;" vertex="1" parent="1">
                    <mxGeometry x="-159.2882891575241" y="785.7189861645741" width="4.672539772115215" height="4.665236216357243" as="geometry"/>
                </mxCell>
                <mxCell id="85" value="" style="shape=stencil(7VjLctswDPwaXzEEQfBxTtP/yEycxtM0zjju6+8L1aVkQvZmcusht8TCSgSwWADcyM3r493LdhPD6/Gw/7r9ubs/Pm7k0ybG3fPj9rA72l8bud3IzcP+sP1y2H9/vj/9/3I3WU5/fdv/mN7w64TjRswTKobfp18Kcf37w+eT/dPu+cw+JippsGchDdcBwpTrCGjU9DogBeLxC7GSFgBolEYXpFEAR9L5fR2ggSRfB+RMWQZAZmK5DihCuY1RDZSBDzVQdGmo8As1U4oDoAoMa4sUxi9UHKXWSEanW6LKENDCCFDKIKwcQj/BjMikAGGfyKMTrVBKAFCpjKm2XyIKUyFlD4BxVWoOYHxsAJAoZA+ob2TOVdASuMsIe1z8JxoIUzWyrc6EUjfRTz2AgddVKSQfVwVeVwvTSHBLTQHKZAXjMlcLBfCFkiiN7LNXCChSq2FXEbn25F/WDe3knAGBFERpejweSYUiAKh6KUtGYJBpnXVoBkTKEahrpDhSQxQC7HEbqWEtIIE8mLzLmDjrQQXkgYuPUmQq4EjNSx8nUkAlE/eReoUExDR0ms1JowJqJ/QGO2eAGBQzdzWZnYV1I1Rdf6YIYpmpjW83jgO+cfACjJXIAi3R2TM4vaW2iLNHPcceJ6eN1EDbtODF0V+BJW/2zY0K0F+z9xVPGVDHzl/G6qqde5fjU/241igiJif/fstgAAFl9q3DABGcqPjhy5oZIFDqXWIxD6jUe10vlVhBekPn+hJ9AdlajR+JMiBn6NRauIP6S/Q6yLClKtXx7KEPnVc0Taozh4GULjJn9oCYnHsoFnvUV3ieFxZvFRUu97peZK2C6LzXXsRPAxaBDCpFKuUxQFZrqPUmXQlzhFqi0bPT6FlQc5/HkbNO2oAPeTWLCq7G9URjXkWQZpuZ6liQav0JbUJttWtVeCSb+5zi5tI1/tqwy6MPJeNpQP2uZcMpWv+mTciNoh+b0Mcm9A/wX25CbghpuPUUoTL6YF4hKbO9xy0FNfTUXAbEPqbMRRp7A7usfcmXkL0CTXYp+0lQsRxL7g1k1j7uani5BeVV/2c8fBU/vUxNCzXReTuc+a0QoN5+vgq7Yu6GrwrnHdNJtx9TRSnzl2QF3mCt6ibDLbF4vVN4mLbeyZA6TnuNYw8xGqeiH3utqtHelHyTUnjNankvq/OjBlL8UqnwZsJmG9fSMpTq914Tv21vfyx30g+7p6fTlfb5c3+HbT+d7r/l9g8=);lineShape=1;strokeColor=default;" vertex="1" parent="1">
                    <mxGeometry x="-528.275133782264" y="711.9717621218394" width="22.55251489855732" height="50.712288827691054" as="geometry"/>
                </mxCell>
                <mxCell id="86" value="" style="shape=stencil(lVZdU9swEPw1fr056fT5TOF/MENoPE0TJoQW/j1nPDI+mSztm+PsWtLe7p0GuXne3z/tBs/Pl/Pp1+7v+HDZD/Jj8H487nfn8aJPg9wOcvN4Ou9+nk8vx4f599P9hJyefp/+TF94nXlCPkwkz2/zi1ypuI83dzP+MB5XeFepekNIgVy6TpBKoRhCyOTLdUIs/Qpe1wQr5ExcDcEFimCF6kicJZBDeCFn8UwuAHwk3uAZ4BMV6fbD4MC1kCSrUJPsa7yWIBp8pFAhvtqSFYpo/4rv9HSUBBK8LfFUsQhP3CnqEtUMJZXOE4US0kg3YIOgThd0Bk9pQ2BEYKpsCZkyKHOpTfWFEKGspTTbLwRPBRhbCd4aQ8MPCj0tYI2aKCO8Gs+eQLBRmXLugpBxDYKtMpOgIIf29yeecTA7fRj7OlOx+/HkQTPVHDjrIXUhcrWWx+qTKQC84+V8i6BMEUc/dkETnJvSdrBKpkfNMbVmvkomGiB1Sfo/Eopv82VxnfoK2EInWHfokKCuIfb9Sz+RgJE0J13H1k061PCo2qCpzhE4aVOFqZBAo7TpRYyjEPuRWfE9QVojWeHR930/ojRLyHc6wm1ydOhmICj3nUuHOpppqob10NS+QXA2QdNeiVoR93qWCPXkzUgWCiBmrg9Nca0XX6nX/90Dv8frw+el83E8HOY76/r//pKqr+YLrty+Aw==);lineShape=1;strokeColor=default;" vertex="1" parent="1">
                    <mxGeometry x="-527.9419922557888" y="699.5017560611036" width="24.59950452091425" height="14.963367611564308" as="geometry"/>
                </mxCell>
                <mxCell id="87" value="" style="shape=stencil(lVbLTiNBDPyauVr9dveZZf8DiUBGm01QCAv8PQ6jnsSeTK24TTpV3X6V7SHevW4fXjZDcK+n4+HP5n18PG2H+GsIYdxvN8fxJF9DvB/i3dPhuHk+Ht72j9Pvl4cz8vz19/DvfMPHxEvk/ZkU3Od0wJlc/D75PeF34/4KH5hKUIScKdV1QvbESRFioprXCRwoOUXwDF9ojrhpAvkE8IGYFd6RKwAv9iaD9wzwhbgaexJwuFWK2v7YL7iNb5R1zgo1t473TvwzEXWUGnyhRk1I2OW2eIEpo5guykiCGoETLVPVTofQS/c2IdosC6GiF6RQgyUEEKUqUWLrQwGFVysl7YOv5AIgcE/TVR4Y+CCEoH3wnhwyaZEH7jauuVC0FhIFFFSRitUmY206jXcwB6JNX6yWkT2l1/EFj7QjddpM2WF86+GY22NvTmt4c79cgHQjeO2vD/1kjRB1wnzB2q/kjfYbbr+ld7c5RJ4KGCE/JjD3mM8NkolBR81z87kaUhUILUYqumXLmwX2VMqaIHEroENW64IkhoHQeJEFhys7U2T7QAZBlfYYrQMRhGjuhTNe0giULDNYJ1mk6oDDbmG/79JewZuJI60JTXHBa3uqjHWgA9ejN+N9H4or/pqthWUmgoIIVMziJWsDsP+ni9r/8fJx2Qqfxt1uWiqv/7dbpBxNG2i8/wI=);lineShape=1;strokeColor=default;" vertex="1" parent="1">
                    <mxGeometry x="-520.4450766946795" y="716.2536435432787" width="22.09891176312044" height="12.385021555430285" as="geometry"/>
                </mxCell>
                <mxCell id="88" value="" style="shape=stencil(7VlBchw3DHzNXlEESILk2XH+oSrL0VZkySXLsf17g9lwdghqWuWTc9BtNULPgCDQaIKn+O7L3c3n25OEL89Pj3/ffjt/eL47xT9OIueHu9un87P9OsX3p/ju4+PT7V9Pj18fPlz+/nzTLfuvT4//9Dd8v+A4E3NHSfhxeZIKpfrvkz8vgPvzwx5QKM6AzCTpGCCBUp4BmRR8QRLlGaBMrMeAGEjiDKgkDABKOgOKEgOXklBME6BGauALSanNgGZOBgBoVGQGJNJ8DLCoxzoDCnEBACGew9pwlAwgCyCDne6A4AEVhNUAYc6l1mCUbNFaPQBla8/N6AH/BfplQCBtHlAbBIQF0FAumcdlAnCwd6DcsCjq8okIAbL4VMAirObrshEZLcJIYolrRAVRRoHtAHDRRkzuC3Fk/FGN5nkNtYy9fJkFig9rMZdAbsSFBbSNV7zMZAvPaKAGFi2W345c7ZvAJa4++4x5AqLvTGXOvsQwl9iIbgbERoxcYs8CRrcC9sEayrwNMVMARBZ9JsUEk9siGL29gvczZfX2CTDxtqU7ewYRtX4473GMVACtBuLg7SNIoo1MNnuhCjYseAXQ8xyu15V+ZNgLw8ivnX1GCUS5eXvUp8xbl6D2RVT3JOLtUZdKS/yxffEFIw3GsyuqOUD2CgYA+77OGWprUsSl6undeCODkOqWMRtAqICcLsX3WXsAYlSrpyGhBnKi6VAewx7LKdNCjoSsKkCNmX0Tb4/eX0kXe5BzXdd4/1EN937t/Uc73AVBdvYNdKarRtk2eLDwoT/eHuVDVwN+fwNIaYune7/A/DF7V5RCCefD4g+0Vy8DzR/QM8yexa8XxSd7uc9jw4/sXf4z1AXdfvY/wC5v9rU4+4zXG5d6RPulnhQDlCm2X07ov1qP0a8X5lsb/975j+LZvCiwLojrvXp/KuCf3RHgusGvOOQ2bJOOhwvwCddwQbalAJA/v2rPlGZ/EvSnLIS1MczLHSx7Jc0JMqIdy7LrwphCTYW5Q5bJfdTnrym/ExKCpDePnrVXcgCgQ4ftlSVawpuSflPS/2sl7Zqk+R9RwVhTXwoGJRyrn4n1CgAV03WzC2mFPMTNDwLtvC2IJWRs0QbIUKrIcqLvUzIA6EFfphL8yrh0/oI2qHb7uHQmllJhoaUy1NVudhPQbDIss0lMjW/Tz03HA8J4m35e1dLvnX6qPw/1Eyoel7oDo0n6iGvUnRhNkgUkFqq/+KlpOHk0Ls2OBSwM6KZIfX8wnmGkRxYWUMGzyTwk3caVCm9ZWJbLK4HDSQ6eyRKmPgPw7FLaBkiHgOYBCs8Wno1TwW10YQEDoOmJCVV3+r1OnI4AmjwArkE8kyWFbGyAunwBaqXotUMHoEl68uqwFy1adBpkvQOgoZcB6pIa6Jry1y9zXwfYj+vd8cfz/f3l6nn/f3/XbI8u99Tx/U8=);lineShape=1;strokeColor=default;" vertex="1" parent="1">
                    <mxGeometry x="-538.1224377450212" y="793.7433115886138" width="60.14936262248284" height="111.23318094949332" as="geometry"/>
                </mxCell>
                <mxCell id="89" value="" style="shape=stencil(lVbLctswDPwaXTEgwec5Tf8jM3FqTV074zht8/eBqpIx4Xg9uckylgKw2CUmuXvZPjxvJs8vp+Ph5+bP/HjaTvJt8n7ebzfH+aRPk9xPcvd0OG5+HA+v+8f19/PDErk8/Tr8Xk74u+ICeV5Ant/WF9mTD//efF/jd/P+LF4B7AZADCTuOkAK1TQAApMDgJgphgGg33T1OiALiR8AzhGn64DKFMoAYJIC4j1VGw/PjxTGHjnyHsRrxSMJQllAfCWOI2kkgDONL8U2KGUIqKajiXyEADeSrC1KuOT/CZyRLAgQ23kdkKiilKT1vAMKroEpXwAYdKkUkmxTCoCH0v/uAKEIii6RnOGhUgKTUYLVjouNmWuAPNbgmCIQm6aU6wDQohjEZ6s1IUYla4FWawW4hWrTRRPPIJ8a7BwxlkKiMp7vKSPtF0ps+sNYm6laAhwwI8e9wI4It+zC2ItOEfSj0q6AszlFDqxNEiN/9QvEWmhN6YBMFdHwVUCuVv4SSUANSexgB/UowFyIreud6dAa/flNyFTHGrLWAFJSly7jPVKxhbmL0Vi4R47UDO5j+LB8ErlgP5BAfLBXc+2m+fl6QdlUnGC8szdtxVcnWylUbHfczKrFq585wMAFAUVunB9GdymqfpC/axd9H6EEZeApjf3JuvCBfL66Dt6O14eP3fNp3u3W1fX8f7ur6qt1z5X7dw==);lineShape=1;strokeColor=default;" vertex="1" parent="1">
                    <mxGeometry x="-538.1622628530811" y="851.3153969294149" width="22.974809741913532" height="12.545906361683137" as="geometry"/>
                </mxCell>
                <mxCell id="90" value="" style="shape=stencil(7VvLbhw3EPwaXQmSTbLJs+P8hwHLkRDFMmTl9fdpQuHsTPVOLXxKDgJ8kCXWssmufrL3Tj58f/j07f4ux++vL8+/3v/5+Pn14U5+usv58evD/cvjq/10Jx/v5MOX55f7X16ef//6+e3/3z7NlfOn357/mJ/w1xtOQpQJyvHvt1/0FOZ/7d/Pb+ufHr/u1pegsL6GFM/Xt9DScX0PPZ2v76HFw/qRgrbz9SmGVo+AEiLZIOWgR4lGDZ2cIJVQ8xHQQlcC0NAdYPRzQI4hRxRpECWY1vJRC0OoSKaGBIeOQZlIPeR21JuGWghghAbEsHsjIok7dM9BiKYNUIBKcZ3q9Ax6AGgPUuktyfHQ2pYqrwNKkHIEmDUwPTjyqYTGdsjuDPYRHBAjAoRpOiFbdfuIM4DCLaVQb+yQEEBvKYUBO9xga14+awcoQgFVEZAYNfKy4AVoIwxmD7IE2AE6B/ThAOwMZZF5LxJnKyruhgEZmd21Ui6NEAGQQmE2LWjTZg+d6EE0KCiu0R1Kcibalw1eBwhq2txMIYorFuLAVRrhmUgt1OFEIhZXqrOHxs/gFVdofLBD1yOXphNgZ6ghA8C4NAhA1yXuqJEZYGDYbbp+cxVQI6YmrdIdqjnGo6tseV30dYBlFmCikV5rbctcFqAO6lvnn4/0rnZoll4532p7MmfcChqQARi97dZ1oEgsTk8f0dyhyQ5GNdS0UYOcQV3YbbKywOuAGtrx0EaNSqihin6pdUrvvrF/A5RQiEhd1p3suJQJlyzPhtShFpoZ97bizQKYDQ6WejtHViJVnImUjyJJpgHFMjzgksUkRm+71ng0oNTXR5wpDgGFRlGLN/l4SynRGGdEaEe2WlJJzmzUBDWYIsmlmrGAz+DcNvNNR27nUIj8xppUcD2Rvzr5N7d5tr52WJ+IAmw9nNeyP/75UPskfj+C95Oo+5rrUZ7I7lOwUoq0nLT1JcP6yuVvBdYL448sI7+sT5wPGeWJLGqWVQfu1vOg2fF+mI+4xK+dvliMHaEco7jQWmHaI5SRy4tdX2/B65jpmEdhpYJFJ1CwnbgRRqjbIfOc1twouCCrjZUFm7pUtAHM6ohRztgBl1qolfWxukAboNJrHa5ksx1Yk2QUjB0GKIQYoyKRhHuW2QcCTzpor2o0rLWzUk1PwNF3ZZ6XGyBVBLBoMzbmbAC5dYYhCCgkzR6K2ZoBWGo0LHNyIiXiwUZ3WYLQ1GiMReYdgCXBBtCC1xrZoQdWYDNxISY6ARAFKw2DBgCLM0DjZ4AGQ27UL9m1QmCYboYrDuqj2c1lelBMICeAiaQ/6PmMrdUBWPvZANlfK9N0w7zcAJGbaHQ5Lb3WdoWtrOw0gDoDqoxLVqA5E81cD6MigLK1uyRPuLsfV5wA1fTAGDcd2Q2LS6gHljikGJ37LrSn9+OIadVwbKXZyfRMR3LMPjnfAcuFTJtJo2MdOQMvj6MKOygtni20iyKAhfbesTdkAFa0zXwGAG1R/qzahjb6zGdYihWxKz6TB5b1KTYAZi5wo+sBNsfbhk0xF0j1Vm8IQvugWeJsNR03qLwyea8k3yvJ/3MlWbz8tPmqWMNE3kqNV/jGOqkFk8hC+XB5ztlahLRzNHv88IwcBuuVdfz8JDR0WN2JBnDDsVdX7wh9ouqKTyPmdmllO9DtyuAijZWcbUroyw2cBSeB/nelL7B2aGgwmCOmsca3gtva8yw4iXsqvNEVBU8xn2yJ6ags5ux2oOEvr273BlAakS+vP/uWPAt/Awc9mtAzmAB4hkRvaT6NQKeWP6ja58Ezm7kEltReHkL21GAhTd0TldCWvHETYqyditX/0wnDw3ajL7DVPdm2QXtJNeOblumeZXc1YuqvvEAyC4amh1ZKjbK9CWyAQm26iBswEBrbSsIcWCOld8l4htZXcXwdUFGkSXj+7NycTbORnuLmmExxShRneoDiRXkfpgwUSSstj6qbAbIgRnNCl8d3niQV1+nphWtacbSq84ZBcWmA7cDaW0aNDBMJmb4tykB626EZva16yu5aGzm0JGdAjU+GKM71zTY5AxQ3NCQc8D4p9a+b+e8npeCt/X1SygOaM6BMfWvuGNiVt7ck4syDVvrWIILlvDmBzJyAYP12Y1JKcujgyLbx4zMAzJOZb6XzZHF1RDYAd2R+znV2rxg1KhaJc1aX2UNyE82dDsam7oZ7B+1jpOpeKCOvdOcMdMUtWFqZohuaVprOdKTGuNGrwlJ6ZNqULBiw+g2fgU363qhBR7TnOZxMmBodUXlocI3kzmtENwdj67k8MNVi69kDV1yxdZ8xUHnUrWdpVVpZ2t5VEHm28nS3nvXaEoaES418wgcYX+yR8tNFQVvPXufylQyMRZwf/RrG7fX2w+U7H18en57evjKy/zt+R8R+9fb9Evn4Dw==);lineShape=1;strokeColor=default;" vertex="1" parent="1">
                    <mxGeometry x="-496.50549774599176" y="745.3977175894252" width="117.4931861485627" height="131.39578394749788" as="geometry"/>
                </mxCell>
                <mxCell id="91" value="" style="shape=stencil(fZbdcgIhDIWfZm8zQAg/17Z9j85U606tdqz9e/tmZ0c0uJ47xP0I5JwEBl59bp8/1kNwn6fj4W39M76ctgM/DCGM++36OJ50NPDjwKvN4bh+PR6+9i/z74/n6ctp9H74nlb4nbmSKZeJCu5vngmZ6jzzNAO7cX8FVKEsBuBKrgKg9oAE8gkCbLeUhEoEQKSUDZDLeWYRKIl8MEDRmHwfyBrBG6Amyu4+kDxxMoB3jhwgYu7TVAsVkFcWCs4CTBEoF4RctKeOxHIf8IXYpikHikAIf+MNUW94AGSSaoAoFIE3AlOyeWU+p2E5S9yfQZcQILVuQOwZdJNoS9Ls3wA5u2XZTIHECqeJ9kDpSaauRiNVcAY1QhdBzeLBli5WazpkSsBLV25uRaqWRyFawTQzRRIQYirJzq5atkBqLfouwqUxLBepthWb10vrWZY6UOAeyKCCtDV625mm9gmUC4Wc3VLJMMIE1BsA2FW9JraVlQB7n3c9oMKhCLEvIM1zBPZ25/umNQ1tVEC2G+fFCC8g398O2hNQuQlVu752DBfA+q0ptnqO5JFmeuIuo9DY7KjY71UxdJV4EntifPWorW++R/dC4t7V3DlIB5cHx2bc7eb3yvX//QNFp+bHDT/+Aw==);lineShape=1;strokeColor=default;" vertex="1" parent="1">
                    <mxGeometry x="-573.4549761692429" y="637.3856884350819" width="4.672539772115215" height="4.665236216357243" as="geometry"/>
                </mxCell>
                <mxCell id="92" value="" style="shape=stencil(fZbdcgIhDIWfZm8zQAg/17Z9j85U606tdqz9e/tmZ0c0uJ47xP0I5JwEBl59bp8/1kNwn6fj4W39M76ctgM/DCGM++36OJ50NPDjwKvN4bh+PR6+9i/z74/n6ctp9H74nlb4nbmSKZeJCu5vngmZ6jzzNAO7cX8FVKEsBuBKrgKg9oAE8gkCbLeUhEoEQKSUDZDLeWYRKIl8MEDRmHwfyBrBG6Amyu4+kDxxMoB3jhwgYu7TVAsVkFcWCs4CTBEoF4RctKeOxHIf8IXYpikHikAIf+MNUW94AGSSaoAoFIE3AlOyeWU+p2E5S9yfQZcQILVuQOwZdJNoS9Ls3wA5u2XZTIHECqeJ9kDpSaauRiNVcAY1QhdBzeLBli5WazpkSsBLV25uRaqWRyFawTQzRRIQYirJzq5atkBqLfouwqUxLBepthWb10vrWZY6UOAeyKCCtDV625mm9gmUC4Wc3VLJMMIE1BsA2FW9JraVlQB7n3c9oMKhCLEvIM1zBPZ25/umNQ1tVEC2G+fFCC8g398O2hNQuQlVu752DBfA+q0ptnqO5JFmeuIuo9DY7KjY71UxdJV4EntifPWorW++R/dC4t7V3DlIB5cHx2bc7eb3yvX//QNFp+bHDT/+Aw==);lineShape=1;strokeColor=default;" vertex="1" parent="1">
                    <mxGeometry x="-514.2882891575243" y="399.8856731762926" width="4.672539772115442" height="4.665236216357698" as="geometry"/>
                </mxCell>
            </root>
        </mxGraphModel>
    </diagram>
</mxfile>